ISO-10303-21;
HEADER;
/* Generated by software containing ST-Developer
 * from STEP Tools, Inc. (www.steptools.com) 
 */
/* OPTION: using custom renumber hook */

FILE_DESCRIPTION(
/* description */ ('STEP AP242 Edition 2',
'CAx-IF Rec.Pracs.---Representation and Presentation of Product Manufa
cturing Information (PMI)---4.0---2014-10-13',
'CAx-IF Rec.Pracs.---3D Tessellated Geometry---0.4---2014-09-14','2;1',
'CAx-IF Rec.Pracs.---User Defined Attributes---1.5---2016-08-15'),
/* implementation_level */ '2;1');

FILE_NAME(
/* name */ 'Part Studio 1 - Lid',
/* time_stamp */ '2026-08-26T07:20:38Z',
/* author */ (''),
/* organization */ (''),
/* preprocessor_version */ 'ST-DEVELOPER v20',
/* originating_system */ 'ONSHAPE BY PTC INC, 1.219',
/* authorisation */ '  ');

FILE_SCHEMA (('AP242_MANAGED_MODEL_BASED_3D_ENGINEERING_MIM_LF { 1 0 10303 442 3 1 4 }'));
ENDSEC;

DATA;
#10=SHAPE_REPRESENTATION_RELATIONSHIP('','',#291,#11);
#11=ADVANCED_BREP_SHAPE_REPRESENTATION('',(#289),#487);
#12=CIRCLE('',#297,0.0016);
#13=CIRCLE('',#298,0.0016);
#14=CIRCLE('',#300,0.0016);
#15=CIRCLE('',#301,0.0016);
#16=CIRCLE('',#303,0.0016);
#17=CIRCLE('',#304,0.0016);
#18=CIRCLE('',#306,0.0016);
#19=CIRCLE('',#307,0.0016);
#20=CIRCLE('',#310,0.0016);
#21=CIRCLE('',#311,0.0016);
#22=CIRCLE('',#313,0.003);
#23=CIRCLE('',#314,0.003);
#24=CIRCLE('',#315,0.003);
#25=CIRCLE('',#316,0.003);
#26=CIRCLE('',#318,0.003);
#27=CIRCLE('',#319,0.003);
#28=CIRCLE('',#320,0.003);
#29=CIRCLE('',#321,0.003);
#30=CYLINDRICAL_SURFACE('',#296,0.0016);
#31=CYLINDRICAL_SURFACE('',#299,0.0016);
#32=CYLINDRICAL_SURFACE('',#302,0.0016);
#33=CYLINDRICAL_SURFACE('',#305,0.0016);
#34=CYLINDRICAL_SURFACE('',#309,0.0016);
#35=CYLINDRICAL_SURFACE('',#322,0.003);
#36=CYLINDRICAL_SURFACE('',#323,0.003);
#37=CYLINDRICAL_SURFACE('',#324,0.003);
#38=CYLINDRICAL_SURFACE('',#325,0.003);
#39=ORIENTED_EDGE('',*,*,#107,.F.);
#40=ORIENTED_EDGE('',*,*,#108,.T.);
#41=ORIENTED_EDGE('',*,*,#109,.T.);
#42=ORIENTED_EDGE('',*,*,#110,.T.);
#43=ORIENTED_EDGE('',*,*,#111,.F.);
#44=ORIENTED_EDGE('',*,*,#112,.T.);
#45=ORIENTED_EDGE('',*,*,#113,.T.);
#46=ORIENTED_EDGE('',*,*,#114,.T.);
#47=ORIENTED_EDGE('',*,*,#115,.T.);
#48=ORIENTED_EDGE('',*,*,#116,.T.);
#49=ORIENTED_EDGE('',*,*,#117,.F.);
#50=ORIENTED_EDGE('',*,*,#118,.T.);
#51=ORIENTED_EDGE('',*,*,#119,.T.);
#52=ORIENTED_EDGE('',*,*,#120,.F.);
#53=ORIENTED_EDGE('',*,*,#121,.F.);
#54=ORIENTED_EDGE('',*,*,#122,.T.);
#55=ORIENTED_EDGE('',*,*,#123,.F.);
#56=ORIENTED_EDGE('',*,*,#124,.T.);
#57=ORIENTED_EDGE('',*,*,#125,.T.);
#58=ORIENTED_EDGE('',*,*,#126,.F.);
#59=ORIENTED_EDGE('',*,*,#127,.F.);
#60=ORIENTED_EDGE('',*,*,#128,.T.);
#61=ORIENTED_EDGE('',*,*,#129,.T.);
#62=ORIENTED_EDGE('',*,*,#130,.T.);
#63=ORIENTED_EDGE('',*,*,#131,.T.);
#64=ORIENTED_EDGE('',*,*,#132,.F.);
#65=ORIENTED_EDGE('',*,*,#109,.F.);
#66=ORIENTED_EDGE('',*,*,#133,.T.);
#67=ORIENTED_EDGE('',*,*,#111,.T.);
#68=ORIENTED_EDGE('',*,*,#134,.T.);
#69=ORIENTED_EDGE('',*,*,#117,.T.);
#70=ORIENTED_EDGE('',*,*,#135,.T.);
#71=ORIENTED_EDGE('',*,*,#129,.F.);
#72=ORIENTED_EDGE('',*,*,#136,.T.);
#73=ORIENTED_EDGE('',*,*,#125,.F.);
#74=ORIENTED_EDGE('',*,*,#123,.T.);
#75=ORIENTED_EDGE('',*,*,#121,.T.);
#76=ORIENTED_EDGE('',*,*,#119,.F.);
#77=ORIENTED_EDGE('',*,*,#131,.F.);
#78=ORIENTED_EDGE('',*,*,#113,.F.);
#79=ORIENTED_EDGE('',*,*,#137,.T.);
#80=ORIENTED_EDGE('',*,*,#107,.T.);
#81=ORIENTED_EDGE('',*,*,#138,.T.);
#82=ORIENTED_EDGE('',*,*,#127,.T.);
#83=ORIENTED_EDGE('',*,*,#139,.T.);
#84=ORIENTED_EDGE('',*,*,#115,.F.);
#85=ORIENTED_EDGE('',*,*,#140,.T.);
#86=ORIENTED_EDGE('',*,*,#126,.T.);
#87=ORIENTED_EDGE('',*,*,#124,.F.);
#88=ORIENTED_EDGE('',*,*,#122,.F.);
#89=ORIENTED_EDGE('',*,*,#120,.T.);
#90=ORIENTED_EDGE('',*,*,#132,.T.);
#91=ORIENTED_EDGE('',*,*,#133,.F.);
#92=ORIENTED_EDGE('',*,*,#108,.F.);
#93=ORIENTED_EDGE('',*,*,#137,.F.);
#94=ORIENTED_EDGE('',*,*,#112,.F.);
#95=ORIENTED_EDGE('',*,*,#136,.F.);
#96=ORIENTED_EDGE('',*,*,#128,.F.);
#97=ORIENTED_EDGE('',*,*,#138,.F.);
#98=ORIENTED_EDGE('',*,*,#110,.F.);
#99=ORIENTED_EDGE('',*,*,#135,.F.);
#100=ORIENTED_EDGE('',*,*,#116,.F.);
#101=ORIENTED_EDGE('',*,*,#139,.F.);
#102=ORIENTED_EDGE('',*,*,#130,.F.);
#103=ORIENTED_EDGE('',*,*,#134,.F.);
#104=ORIENTED_EDGE('',*,*,#114,.F.);
#105=ORIENTED_EDGE('',*,*,#140,.F.);
#106=ORIENTED_EDGE('',*,*,#118,.F.);
#107=EDGE_CURVE('',#141,#142,#167,.T.);
#108=EDGE_CURVE('',#141,#143,#168,.F.);
#109=EDGE_CURVE('',#143,#144,#169,.T.);
#110=EDGE_CURVE('',#144,#142,#170,.T.);
#111=EDGE_CURVE('',#145,#146,#171,.T.);
#112=EDGE_CURVE('',#145,#147,#172,.T.);
#113=EDGE_CURVE('',#147,#148,#173,.T.);
#114=EDGE_CURVE('',#148,#146,#174,.F.);
#115=EDGE_CURVE('',#149,#150,#175,.T.);
#116=EDGE_CURVE('',#150,#151,#176,.F.);
#117=EDGE_CURVE('',#152,#151,#177,.T.);
#118=EDGE_CURVE('',#152,#149,#178,.T.);
#119=EDGE_CURVE('',#153,#153,#12,.T.);
#120=EDGE_CURVE('',#154,#154,#13,.T.);
#121=EDGE_CURVE('',#155,#155,#14,.T.);
#122=EDGE_CURVE('',#156,#156,#15,.T.);
#123=EDGE_CURVE('',#157,#157,#16,.T.);
#124=EDGE_CURVE('',#158,#158,#17,.T.);
#125=EDGE_CURVE('',#159,#159,#18,.T.);
#126=EDGE_CURVE('',#160,#160,#19,.T.);
#127=EDGE_CURVE('',#161,#162,#179,.T.);
#128=EDGE_CURVE('',#161,#163,#180,.F.);
#129=EDGE_CURVE('',#163,#164,#181,.T.);
#130=EDGE_CURVE('',#164,#162,#182,.T.);
#131=EDGE_CURVE('',#165,#165,#20,.T.);
#132=EDGE_CURVE('',#166,#166,#21,.T.);
#133=EDGE_CURVE('',#143,#145,#22,.T.);
#134=EDGE_CURVE('',#146,#152,#23,.T.);
#135=EDGE_CURVE('',#151,#164,#24,.T.);
#136=EDGE_CURVE('',#163,#144,#25,.T.);
#137=EDGE_CURVE('',#147,#141,#26,.F.);
#138=EDGE_CURVE('',#142,#161,#27,.F.);
#139=EDGE_CURVE('',#162,#150,#28,.F.);
#140=EDGE_CURVE('',#149,#148,#29,.F.);
#141=VERTEX_POINT('',#413);
#142=VERTEX_POINT('',#414);
#143=VERTEX_POINT('',#416);
#144=VERTEX_POINT('',#418);
#145=VERTEX_POINT('',#422);
#146=VERTEX_POINT('',#423);
#147=VERTEX_POINT('',#425);
#148=VERTEX_POINT('',#427);
#149=VERTEX_POINT('',#431);
#150=VERTEX_POINT('',#432);
#151=VERTEX_POINT('',#434);
#152=VERTEX_POINT('',#436);
#153=VERTEX_POINT('',#440);
#154=VERTEX_POINT('',#442);
#155=VERTEX_POINT('',#445);
#156=VERTEX_POINT('',#447);
#157=VERTEX_POINT('',#450);
#158=VERTEX_POINT('',#452);
#159=VERTEX_POINT('',#455);
#160=VERTEX_POINT('',#457);
#161=VERTEX_POINT('',#460);
#162=VERTEX_POINT('',#461);
#163=VERTEX_POINT('',#463);
#164=VERTEX_POINT('',#465);
#165=VERTEX_POINT('',#469);
#166=VERTEX_POINT('',#471);
#167=LINE('',#412,#183);
#168=LINE('',#415,#184);
#169=LINE('',#417,#185);
#170=LINE('',#419,#186);
#171=LINE('',#421,#187);
#172=LINE('',#424,#188);
#173=LINE('',#426,#189);
#174=LINE('',#428,#190);
#175=LINE('',#430,#191);
#176=LINE('',#433,#192);
#177=LINE('',#435,#193);
#178=LINE('',#437,#194);
#179=LINE('',#459,#195);
#180=LINE('',#462,#196);
#181=LINE('',#464,#197);
#182=LINE('',#466,#198);
#183=VECTOR('',#330,1.);
#184=VECTOR('',#331,1.);
#185=VECTOR('',#332,1.);
#186=VECTOR('',#333,1.);
#187=VECTOR('',#336,1.);
#188=VECTOR('',#337,1.);
#189=VECTOR('',#338,1.);
#190=VECTOR('',#339,1.);
#191=VECTOR('',#342,1.);
#192=VECTOR('',#343,1.);
#193=VECTOR('',#344,1.);
#194=VECTOR('',#345,1.);
#195=VECTOR('',#372,1.);
#196=VECTOR('',#373,1.);
#197=VECTOR('',#374,1.);
#198=VECTOR('',#375,1.);
#199=EDGE_LOOP('',(#39,#40,#41,#42));
#200=EDGE_LOOP('',(#43,#44,#45,#46));
#201=EDGE_LOOP('',(#47,#48,#49,#50));
#202=EDGE_LOOP('',(#51));
#203=EDGE_LOOP('',(#52));
#204=EDGE_LOOP('',(#53));
#205=EDGE_LOOP('',(#54));
#206=EDGE_LOOP('',(#55));
#207=EDGE_LOOP('',(#56));
#208=EDGE_LOOP('',(#57));
#209=EDGE_LOOP('',(#58));
#210=EDGE_LOOP('',(#59,#60,#61,#62));
#211=EDGE_LOOP('',(#63));
#212=EDGE_LOOP('',(#64));
#213=EDGE_LOOP('',(#65,#66,#67,#68,#69,#70,#71,#72));
#214=EDGE_LOOP('',(#73));
#215=EDGE_LOOP('',(#74));
#216=EDGE_LOOP('',(#75));
#217=EDGE_LOOP('',(#76));
#218=EDGE_LOOP('',(#77));
#219=EDGE_LOOP('',(#78,#79,#80,#81,#82,#83,#84,#85));
#220=EDGE_LOOP('',(#86));
#221=EDGE_LOOP('',(#87));
#222=EDGE_LOOP('',(#88));
#223=EDGE_LOOP('',(#89));
#224=EDGE_LOOP('',(#90));
#225=EDGE_LOOP('',(#91,#92,#93,#94));
#226=EDGE_LOOP('',(#95,#96,#97,#98));
#227=EDGE_LOOP('',(#99,#100,#101,#102));
#228=EDGE_LOOP('',(#103,#104,#105,#106));
#229=FACE_BOUND('',#199,.T.);
#230=FACE_BOUND('',#200,.T.);
#231=FACE_BOUND('',#201,.T.);
#232=FACE_BOUND('',#202,.T.);
#233=FACE_BOUND('',#203,.T.);
#234=FACE_BOUND('',#204,.T.);
#235=FACE_BOUND('',#205,.T.);
#236=FACE_BOUND('',#206,.T.);
#237=FACE_BOUND('',#207,.T.);
#238=FACE_BOUND('',#208,.T.);
#239=FACE_BOUND('',#209,.T.);
#240=FACE_BOUND('',#210,.T.);
#241=FACE_BOUND('',#211,.T.);
#242=FACE_BOUND('',#212,.T.);
#243=FACE_BOUND('',#213,.T.);
#244=FACE_BOUND('',#214,.T.);
#245=FACE_BOUND('',#215,.T.);
#246=FACE_BOUND('',#216,.T.);
#247=FACE_BOUND('',#217,.T.);
#248=FACE_BOUND('',#218,.T.);
#249=FACE_BOUND('',#219,.T.);
#250=FACE_BOUND('',#220,.T.);
#251=FACE_BOUND('',#221,.T.);
#252=FACE_BOUND('',#222,.T.);
#253=FACE_BOUND('',#223,.T.);
#254=FACE_BOUND('',#224,.T.);
#255=FACE_BOUND('',#225,.T.);
#256=FACE_BOUND('',#226,.T.);
#257=FACE_BOUND('',#227,.T.);
#258=FACE_BOUND('',#228,.T.);
#259=PLANE('',#293);
#260=PLANE('',#294);
#261=PLANE('',#295);
#262=PLANE('',#308);
#263=PLANE('',#312);
#264=PLANE('',#317);
#265=ADVANCED_FACE('',(#229),#259,.T.);
#266=ADVANCED_FACE('',(#230),#260,.F.);
#267=ADVANCED_FACE('',(#231),#261,.F.);
#268=ADVANCED_FACE('',(#232,#233),#30,.F.);
#269=ADVANCED_FACE('',(#234,#235),#31,.F.);
#270=ADVANCED_FACE('',(#236,#237),#32,.F.);
#271=ADVANCED_FACE('',(#238,#239),#33,.F.);
#272=ADVANCED_FACE('',(#240),#262,.T.);
#273=ADVANCED_FACE('',(#241,#242),#34,.F.);
#274=ADVANCED_FACE('',(#243,#244,#245,#246,#247,#248),#263,.T.);
#275=ADVANCED_FACE('',(#249,#250,#251,#252,#253,#254),#264,.F.);
#276=ADVANCED_FACE('',(#255),#35,.T.);
#277=ADVANCED_FACE('',(#256),#36,.T.);
#278=ADVANCED_FACE('',(#257),#37,.T.);
#279=ADVANCED_FACE('',(#258),#38,.T.);
#280=CLOSED_SHELL('',(#265,#266,#267,#268,#269,#270,#271,#272,#273,#274,
#275,#276,#277,#278,#279));
#281=STYLED_ITEM('',(#282),#289);
#282=PRESENTATION_STYLE_ASSIGNMENT((#283));
#283=SURFACE_STYLE_USAGE(.BOTH.,#284);
#284=SURFACE_SIDE_STYLE('',(#285));
#285=SURFACE_STYLE_FILL_AREA(#286);
#286=FILL_AREA_STYLE('',(#287));
#287=FILL_AREA_STYLE_COLOUR('',#288);
#288=COLOUR_RGB('',0.874509803921569,0.447058823529412,0.31764705882353);
#289=MANIFOLD_SOLID_BREP('Lid',#280);
#290=SHAPE_DEFINITION_REPRESENTATION(#492,#291);
#291=SHAPE_REPRESENTATION('Lid',(#292),#487);
#292=AXIS2_PLACEMENT_3D('',#410,#326,#327);
#293=AXIS2_PLACEMENT_3D('',#411,#328,#329);
#294=AXIS2_PLACEMENT_3D('',#420,#334,#335);
#295=AXIS2_PLACEMENT_3D('',#429,#340,#341);
#296=AXIS2_PLACEMENT_3D('',#438,#346,#347);
#297=AXIS2_PLACEMENT_3D('',#439,#348,#349);
#298=AXIS2_PLACEMENT_3D('',#441,#350,#351);
#299=AXIS2_PLACEMENT_3D('',#443,#352,#353);
#300=AXIS2_PLACEMENT_3D('',#444,#354,#355);
#301=AXIS2_PLACEMENT_3D('',#446,#356,#357);
#302=AXIS2_PLACEMENT_3D('',#448,#358,#359);
#303=AXIS2_PLACEMENT_3D('',#449,#360,#361);
#304=AXIS2_PLACEMENT_3D('',#451,#362,#363);
#305=AXIS2_PLACEMENT_3D('',#453,#364,#365);
#306=AXIS2_PLACEMENT_3D('',#454,#366,#367);
#307=AXIS2_PLACEMENT_3D('',#456,#368,#369);
#308=AXIS2_PLACEMENT_3D('',#458,#370,#371);
#309=AXIS2_PLACEMENT_3D('',#467,#376,#377);
#310=AXIS2_PLACEMENT_3D('',#468,#378,#379);
#311=AXIS2_PLACEMENT_3D('',#470,#380,#381);
#312=AXIS2_PLACEMENT_3D('',#472,#382,#383);
#313=AXIS2_PLACEMENT_3D('',#473,#384,#385);
#314=AXIS2_PLACEMENT_3D('',#474,#386,#387);
#315=AXIS2_PLACEMENT_3D('',#475,#388,#389);
#316=AXIS2_PLACEMENT_3D('',#476,#390,#391);
#317=AXIS2_PLACEMENT_3D('',#477,#392,#393);
#318=AXIS2_PLACEMENT_3D('',#478,#394,#395);
#319=AXIS2_PLACEMENT_3D('',#479,#396,#397);
#320=AXIS2_PLACEMENT_3D('',#480,#398,#399);
#321=AXIS2_PLACEMENT_3D('',#481,#400,#401);
#322=AXIS2_PLACEMENT_3D('',#482,#402,#403);
#323=AXIS2_PLACEMENT_3D('',#483,#404,#405);
#324=AXIS2_PLACEMENT_3D('',#484,#406,#407);
#325=AXIS2_PLACEMENT_3D('',#485,#408,#409);
#326=DIRECTION('',(0.,0.,1.));
#327=DIRECTION('',(1.,0.,0.));
#328=DIRECTION('',(0.,-1.,0.));
#329=DIRECTION('',(0.,0.,-1.));
#330=DIRECTION('',(1.,0.,1.14958480846707E-15));
#331=DIRECTION('',(-1.14958480846707E-15,0.,1.));
#332=DIRECTION('',(1.,0.,1.14958480846707E-15));
#333=DIRECTION('',(-1.14958480846707E-15,0.,1.));
#334=DIRECTION('',(1.,0.,1.14958480846707E-15));
#335=DIRECTION('',(1.14958480846707E-15,0.,-1.));
#336=DIRECTION('',(0.,1.,0.));
#337=DIRECTION('',(-1.14958480846707E-15,0.,1.));
#338=DIRECTION('',(0.,1.,0.));
#339=DIRECTION('',(-1.14958480846707E-15,0.,1.));
#340=DIRECTION('',(0.,-1.,0.));
#341=DIRECTION('',(0.,0.,-1.));
#342=DIRECTION('',(1.,0.,1.14958480846707E-15));
#343=DIRECTION('',(-1.14958480846707E-15,0.,1.));
#344=DIRECTION('',(1.,0.,1.14958480846707E-15));
#345=DIRECTION('',(-1.14958480846707E-15,0.,1.));
#346=DIRECTION('',(-1.14958480846707E-15,0.,1.));
#347=DIRECTION('',(1.,0.,1.14958480846707E-15));
#348=DIRECTION('',(1.14958480846707E-15,0.,-1.));
#349=DIRECTION('',(-1.,0.,-1.14958480846707E-15));
#350=DIRECTION('',(1.14958480846707E-15,0.,-1.));
#351=DIRECTION('',(-1.,0.,-1.14958480846707E-15));
#352=DIRECTION('',(-1.14958480846707E-15,0.,1.));
#353=DIRECTION('',(1.,0.,1.14958480846707E-15));
#354=DIRECTION('',(-1.14958480846707E-15,0.,1.));
#355=DIRECTION('',(-1.,0.,-1.14958480846707E-15));
#356=DIRECTION('',(-1.14958480846707E-15,0.,1.));
#357=DIRECTION('',(-1.,0.,-1.14958480846707E-15));
#358=DIRECTION('',(-1.14958480846707E-15,0.,1.));
#359=DIRECTION('',(1.,0.,1.14958480846707E-15));
#360=DIRECTION('',(-1.14958480846707E-15,0.,1.));
#361=DIRECTION('',(-1.,0.,-1.14958480846707E-15));
#362=DIRECTION('',(-1.14958480846707E-15,0.,1.));
#363=DIRECTION('',(-1.,0.,-1.14958480846707E-15));
#364=DIRECTION('',(-1.14958480846707E-15,0.,1.));
#365=DIRECTION('',(1.,0.,1.14958480846707E-15));
#366=DIRECTION('',(1.14958480846707E-15,0.,-1.));
#367=DIRECTION('',(-1.,0.,-1.14958480846707E-15));
#368=DIRECTION('',(1.14958480846707E-15,0.,-1.));
#369=DIRECTION('',(-1.,0.,-1.14958480846707E-15));
#370=DIRECTION('',(1.,0.,1.14958480846707E-15));
#371=DIRECTION('',(1.14958480846707E-15,0.,-1.));
#372=DIRECTION('',(0.,1.,0.));
#373=DIRECTION('',(-1.14958480846707E-15,0.,1.));
#374=DIRECTION('',(0.,1.,0.));
#375=DIRECTION('',(-1.14958480846707E-15,0.,1.));
#376=DIRECTION('',(-1.14958480846707E-15,0.,1.));
#377=DIRECTION('',(1.,0.,1.14958480846707E-15));
#378=DIRECTION('',(1.14958480846707E-15,0.,-1.));
#379=DIRECTION('',(-1.,0.,-1.14958480846707E-15));
#380=DIRECTION('',(1.14958480846707E-15,0.,-1.));
#381=DIRECTION('',(-1.,0.,-1.14958480846707E-15));
#382=DIRECTION('',(1.14958480846707E-15,0.,-1.));
#383=DIRECTION('',(1.,0.,1.14958480846707E-15));
#384=DIRECTION('',(1.14958480846707E-15,0.,-1.));
#385=DIRECTION('',(-1.,0.,-1.14958480846707E-15));
#386=DIRECTION('',(1.14958480846707E-15,0.,-1.));
#387=DIRECTION('',(-1.,0.,-1.14958480846707E-15));
#388=DIRECTION('',(1.14958480846707E-15,0.,-1.));
#389=DIRECTION('',(-1.,0.,-1.14958480846707E-15));
#390=DIRECTION('',(1.14958480846707E-15,0.,-1.));
#391=DIRECTION('',(-1.,0.,-1.14958480846707E-15));
#392=DIRECTION('',(1.14958480846707E-15,0.,-1.));
#393=DIRECTION('',(1.,0.,1.14958480846707E-15));
#394=DIRECTION('',(1.14958480846707E-15,0.,-1.));
#395=DIRECTION('',(-1.,0.,-1.14958480846707E-15));
#396=DIRECTION('',(1.14958480846707E-15,0.,-1.));
#397=DIRECTION('',(-1.,0.,-1.14958480846707E-15));
#398=DIRECTION('',(1.14958480846707E-15,0.,-1.));
#399=DIRECTION('',(-1.,0.,-1.14958480846707E-15));
#400=DIRECTION('',(1.14958480846707E-15,0.,-1.));
#401=DIRECTION('',(-1.,0.,-1.14958480846707E-15));
#402=DIRECTION('',(1.14958480846707E-15,0.,-1.));
#403=DIRECTION('',(-1.,0.,-1.14958480846707E-15));
#404=DIRECTION('',(-1.14958480846707E-15,0.,1.));
#405=DIRECTION('',(1.,0.,1.14958480846707E-15));
#406=DIRECTION('',(1.14958480846707E-15,0.,-1.));
#407=DIRECTION('',(-1.,0.,-1.14958480846707E-15));
#408=DIRECTION('',(-1.14958480846707E-15,0.,1.));
#409=DIRECTION('',(1.,0.,1.14958480846707E-15));
#410=CARTESIAN_POINT('',(0.,0.,0.));
#411=CARTESIAN_POINT('',(3.44875442540121E-18,-0.046,-0.00300000000000006));
#412=CARTESIAN_POINT('',(9.25949720643054E-62,-0.046,-6.09486873753071E-17));
#413=CARTESIAN_POINT('',(-0.05,-0.046,-1.1842792779866E-16));
#414=CARTESIAN_POINT('',(0.05,-0.046,-3.4694469519536E-18));
#415=CARTESIAN_POINT('',(-0.05,-0.046,-0.003));
#416=CARTESIAN_POINT('',(-0.05,-0.046,-0.00300000000000012));
#417=CARTESIAN_POINT('',(3.44875442540121E-18,-0.046,-0.00300000000000006));
#418=CARTESIAN_POINT('',(0.05,-0.046,-0.003));
#419=CARTESIAN_POINT('',(0.05,-0.046,-0.003));
#420=CARTESIAN_POINT('',(-0.053,-0.046,-0.003));
#421=CARTESIAN_POINT('',(-0.053,-0.046,-0.003));
#422=CARTESIAN_POINT('',(-0.053,-0.043,-0.003));
#423=CARTESIAN_POINT('',(-0.053,0.043,-0.003));
#424=CARTESIAN_POINT('',(-0.053,-0.043,-3.44875442540122E-18));
#425=CARTESIAN_POINT('',(-0.053,-0.043,-3.46944695195361E-18));
#426=CARTESIAN_POINT('',(-0.053,-0.046,-3.46944695195361E-18));
#427=CARTESIAN_POINT('',(-0.053,0.043,-3.46944695195361E-18));
#428=CARTESIAN_POINT('',(-0.053,0.043,-0.003));
#429=CARTESIAN_POINT('',(3.44875442540121E-18,0.046,-0.00300000000000006));
#430=CARTESIAN_POINT('',(9.25949720643054E-62,0.046,-6.09486873753071E-17));
#431=CARTESIAN_POINT('',(-0.05,0.046,-1.1842792779866E-16));
#432=CARTESIAN_POINT('',(0.05,0.046,-3.4694469519536E-18));
#433=CARTESIAN_POINT('',(0.05,0.046,-0.003));
#434=CARTESIAN_POINT('',(0.05,0.046,-0.003));
#435=CARTESIAN_POINT('',(3.44875442540121E-18,0.046,-0.00300000000000006));
#436=CARTESIAN_POINT('',(-0.05,0.046,-0.00300000000000012));
#437=CARTESIAN_POINT('',(-0.05,0.046,-0.00300000000000012));
#438=CARTESIAN_POINT('',(0.047,0.0405,-0.003));
#439=CARTESIAN_POINT('',(0.047,0.0405,-0.003));
#440=CARTESIAN_POINT('',(0.0454,0.0405,-0.003));
#441=CARTESIAN_POINT('',(0.047,0.0405,-6.91820137735481E-18));
#442=CARTESIAN_POINT('',(0.0454,0.0405,-8.75753707090212E-18));
#443=CARTESIAN_POINT('',(-0.047,0.0405,-0.00300000000000011));
#444=CARTESIAN_POINT('',(-0.047,0.0405,-0.00300000000000011));
#445=CARTESIAN_POINT('',(-0.0486,0.0405,-0.00300000000000012));
#446=CARTESIAN_POINT('',(-0.047,0.0405,-1.14979173373259E-16));
#447=CARTESIAN_POINT('',(-0.0486,0.0405,-1.16818509066807E-16));
#448=CARTESIAN_POINT('',(0.047,-0.0405,-0.003));
#449=CARTESIAN_POINT('',(0.047,-0.0405,-0.003));
#450=CARTESIAN_POINT('',(0.0454,-0.0405,-0.003));
#451=CARTESIAN_POINT('',(0.047,-0.0405,-6.91820137735481E-18));
#452=CARTESIAN_POINT('',(0.0454,-0.0405,-8.75753707090212E-18));
#453=CARTESIAN_POINT('',(-0.047,-0.0405,-0.00300000000000011));
#454=CARTESIAN_POINT('',(-0.047,-0.0405,-0.00300000000000011));
#455=CARTESIAN_POINT('',(-0.0486,-0.0405,-0.00300000000000012));
#456=CARTESIAN_POINT('',(-0.047,-0.0405,-1.14979173373259E-16));
#457=CARTESIAN_POINT('',(-0.0486,-0.0405,-1.16818509066807E-16));
#458=CARTESIAN_POINT('',(0.053,-0.046,-0.003));
#459=CARTESIAN_POINT('',(0.053,-0.046,-2.06925265524E-20));
#460=CARTESIAN_POINT('',(0.053,-0.043,-2.06925265524E-20));
#461=CARTESIAN_POINT('',(0.053,0.043,-2.06925265524E-20));
#462=CARTESIAN_POINT('',(0.053,-0.043,-0.003));
#463=CARTESIAN_POINT('',(0.053,-0.043,-0.003));
#464=CARTESIAN_POINT('',(0.053,-0.046,-0.003));
#465=CARTESIAN_POINT('',(0.053,0.043,-0.003));
#466=CARTESIAN_POINT('',(0.053,0.043,-2.06925265524119E-20));
#467=CARTESIAN_POINT('',(3.44875442540121E-18,-9.79717439317883E-20,-0.00300000000000006));
#468=CARTESIAN_POINT('',(3.44875442540121E-18,-9.79717439317883E-20,-0.00300000000000006));
#469=CARTESIAN_POINT('',(-0.0016,-9.79717439317883E-20,-0.00300000000000006));
#470=CARTESIAN_POINT('',(9.25949720643054E-62,-9.79717439317883E-20,-6.09486873753071E-17));
#471=CARTESIAN_POINT('',(-0.0016,-9.79717439317883E-20,-6.27880230688544E-17));
#472=CARTESIAN_POINT('',(3.44875442540128E-18,0.,-0.00300000000000006));
#473=CARTESIAN_POINT('',(-0.05,-0.043,-0.00300000000000012));
#474=CARTESIAN_POINT('',(-0.05,0.043,-0.00300000000000012));
#475=CARTESIAN_POINT('',(0.05,0.043,-0.003));
#476=CARTESIAN_POINT('',(0.05,-0.043,-0.003));
#477=CARTESIAN_POINT('',(7.00656851026616E-32,0.,-6.09486873753071E-17));
#478=CARTESIAN_POINT('',(-0.05,-0.043,-1.18828558104411E-16));
#479=CARTESIAN_POINT('',(0.05,-0.043,-3.46944695195361E-18));
#480=CARTESIAN_POINT('',(0.05,0.043,-3.46944695195361E-18));
#481=CARTESIAN_POINT('',(-0.05,0.043,-1.18828558104411E-16));
#482=CARTESIAN_POINT('',(-0.05,-0.043,-0.003));
#483=CARTESIAN_POINT('',(0.05,-0.043,-0.003));
#484=CARTESIAN_POINT('',(0.05,0.043,-0.003));
#485=CARTESIAN_POINT('',(-0.05,0.043,-0.00300000000000012));
#486=MECHANICAL_DESIGN_GEOMETRIC_PRESENTATION_REPRESENTATION('',(#281),
#487);
#487=(
GEOMETRIC_REPRESENTATION_CONTEXT(3)
GLOBAL_UNCERTAINTY_ASSIGNED_CONTEXT((#488))
GLOBAL_UNIT_ASSIGNED_CONTEXT((#491,#490,#489))
REPRESENTATION_CONTEXT('Lid','TOP_LEVEL_ASSEMBLY_PART')
);
#488=UNCERTAINTY_MEASURE_WITH_UNIT(LENGTH_MEASURE(1.E-8),#491,
'DISTANCE_ACCURACY_VALUE','Maximum Tolerance applied to model');
#489=(
NAMED_UNIT(*)
SI_UNIT($,.STERADIAN.)
SOLID_ANGLE_UNIT()
);
#490=(
NAMED_UNIT(*)
PLANE_ANGLE_UNIT()
SI_UNIT($,.RADIAN.)
);
#491=(
LENGTH_UNIT()
NAMED_UNIT(*)
SI_UNIT($,.METRE.)
);
#492=PRODUCT_DEFINITION_SHAPE('','',#493);
#493=PRODUCT_DEFINITION('','',#495,#494);
#494=PRODUCT_DEFINITION_CONTEXT('',#501,'design');
#495=PRODUCT_DEFINITION_FORMATION_WITH_SPECIFIED_SOURCE('','',#497,
 .NOT_KNOWN.);
#496=PRODUCT_RELATED_PRODUCT_CATEGORY('','',(#497));
#497=PRODUCT('Lid','Lid','Lid',(#499));
#498=PRODUCT_CATEGORY('','');
#499=PRODUCT_CONTEXT('',#501,'mechanical');
#500=APPLICATION_PROTOCOL_DEFINITION('international standard',
'ap242_managed_model_based_3d_engineering',2020,#501);
#501=APPLICATION_CONTEXT('managed model based 3d engineering');
ENDSEC;
END-ISO-10303-21;
