ISO-10303-21;
HEADER;
FILE_DESCRIPTION (( 'STEP AP214' ),
    '1' );
FILE_NAME ('Adafruit BME688.STEP',
    '2024-03-18T18:03:06',
    ( '' ),
    ( '' ),
    'SwSTEP 2.0',
    'SolidWorks 2024',
    '' );
FILE_SCHEMA (( 'AUTOMOTIVE_DESIGN' ));
ENDSEC;

DATA;
#1 = LINE ( 'NONE', #536, #637 ) ;
#2 = DIRECTION ( 'NONE',  ( 1.000000000000000000, -1.707404996040164166E-15, 0.000000000000000000 ) ) ;
#3 = CARTESIAN_POINT ( 'NONE',  ( -0.4499999999999999556, 0.2499999999999999167, 0.03125000000000000000 ) ) ;
#4 = ORIENTED_EDGE ( 'NONE', *, *, #145, .F. ) ;
#5 = ADVANCED_FACE ( 'NONE', ( #208 ), #554, .T. ) ;
#6 = LINE ( 'NONE', #822, #341 ) ;
#7 = CARTESIAN_POINT ( 'NONE',  ( 0.3999999999999999667, 0.2499999999999999167, -0.03125000000000000000 ) ) ;
#8 = CARTESIAN_POINT ( 'NONE',  ( -0.5000000000000000000, 0.2499999999999999167, 0.03125000000000000000 ) ) ;
#9 = ORIENTED_EDGE ( 'NONE', *, *, #802, .T. ) ;
#10 = LINE ( 'NONE', #604, #188 ) ;
#11 = EDGE_CURVE ( 'NONE', #871, #288, #674, .T. ) ;
#12 = CARTESIAN_POINT ( 'NONE',  ( -0.4000000000000000777, -0.2499999999999999167, -0.03125000000000000000 ) ) ;
#13 = LINE ( 'NONE', #365, #395 ) ;
#14 = VERTEX_POINT ( 'NONE', #66 ) ;
#15 =( CONVERSION_BASED_UNIT ( 'INCH', #770 ) LENGTH_UNIT ( ) NAMED_UNIT ( #384 ) );
#16 = CIRCLE ( 'NONE', #606, 0.1000000000000000194 ) ;
#17 = LINE ( 'NONE', #502, #875 ) ;
#18 = ORIENTED_EDGE ( 'NONE', *, *, #37, .T. ) ;
#19 = ORIENTED_EDGE ( 'NONE', *, *, #412, .T. ) ;
#20 = FACE_OUTER_BOUND ( 'NONE', #430, .T. ) ;
#21 = DIRECTION ( 'NONE',  ( -0.000000000000000000, -0.000000000000000000, 1.000000000000000000 ) ) ;
#22 = EDGE_CURVE ( 'NONE', #656, #645, #478, .T. ) ;
#23 = VERTEX_POINT ( 'NONE', #228 ) ;
#24 = CARTESIAN_POINT ( 'NONE',  ( -0.3999999999999999112, -0.2499999999999999167, -0.03125000000000000000 ) ) ;
#25 = VERTEX_POINT ( 'NONE', #223 ) ;
#26 = AXIS2_PLACEMENT_3D ( 'NONE', #468, #759, #285 ) ;
#27 = CARTESIAN_POINT ( 'NONE',  ( 0.3500000000000000888, -0.2499999999999999167, -0.03125000000000000000 ) ) ;
#28 = CLOSED_SHELL ( 'NONE', ( #639, #239, #287, #363, #627, #857, #89, #732, #456, #848, #542, #173, #53, #265, #705, #583, #691, #720, #235, #381, #446, #809, #369, #348, #5, #655 ) ) ;
#29 = DIRECTION ( 'NONE',  ( -0.000000000000000000, -0.000000000000000000, 1.000000000000000000 ) ) ;
#30 = AXIS2_PLACEMENT_3D ( 'NONE', #371, #359, #641 ) ;
#31 = EDGE_LOOP ( 'NONE', ( #483, #450 ) ) ;
#32 = EDGE_CURVE ( 'NONE', #344, #23, #607, .T. ) ;
#33 = CARTESIAN_POINT ( 'NONE',  ( -0.3999999999999999667, 0.2499999999999999167, 0.03125000000000000000 ) ) ;
#34 = CARTESIAN_POINT ( 'NONE',  ( -0.3999999999999999667, 0.2499999999999999167, -0.03125000000000000000 ) ) ;
#35 = VERTEX_POINT ( 'NONE', #482 ) ;
#36 = CARTESIAN_POINT ( 'NONE',  ( -0.3500000000000000888, -0.2499999999999999167, -0.03125000000000000000 ) ) ;
#37 = EDGE_CURVE ( 'NONE', #825, #820, #337, .T. ) ;
#38 = DIRECTION ( 'NONE',  ( -0.000000000000000000, 0.000000000000000000, 1.000000000000000000 ) ) ;
#39 = ORIENTED_EDGE ( 'NONE', *, *, #834, .T. ) ;
#40 = CARTESIAN_POINT ( 'NONE',  ( -0.5000000000000001110, 0.1187499999999999944, 0.1462500000000000189 ) ) ;
#41 = PRODUCT_DEFINITION_CONTEXT ( 'detailed design', #480, 'design' ) ;
#42 = PRODUCT_DEFINITION_FORMATION_WITH_SPECIFIED_SOURCE ( 'ANY', '', #689, .NOT_KNOWN. ) ;
#43 = CARTESIAN_POINT ( 'NONE',  ( 0.5000000000000001110, -0.1187499999999999667, 0.03125000000000000000 ) ) ;
#44 = CIRCLE ( 'NONE', #163, 0.05000000000000000971 ) ;
#45 = ORIENTED_EDGE ( 'NONE', *, *, #725, .T. ) ;
#46 = CARTESIAN_POINT ( 'NONE',  ( 0.3499999999999999778, 0.2499999999999999167, 0.03125000000000000000 ) ) ;
#47 = CYLINDRICAL_SURFACE ( 'NONE', #329, 0.05000000000000000971 ) ;
#48 = VERTEX_POINT ( 'NONE', #8 ) ;
#49 = ORIENTED_EDGE ( 'NONE', *, *, #559, .T. ) ;
#50 = DIRECTION ( 'NONE',  ( 0.000000000000000000, 0.000000000000000000, -1.000000000000000000 ) ) ;
#51 = VERTEX_POINT ( 'NONE', #752 ) ;
#52 = ORIENTED_EDGE ( 'NONE', *, *, #11, .T. ) ;
#53 = ADVANCED_FACE ( 'NONE', ( #601 ), #466, .F. ) ;
#54 = CARTESIAN_POINT ( 'NONE',  ( -0.3999999999999999667, 0.2499999999999999167, -0.03125000000000000000 ) ) ;
#55 = CARTESIAN_POINT ( 'NONE',  ( -0.3999999999999999667, 0.3499999999999999778, -0.03125000000000000000 ) ) ;
#56 = CIRCLE ( 'NONE', #245, 0.05000000000000000971 ) ;
#57 = EDGE_LOOP ( 'NONE', ( #39, #419, #887, #663, #284, #629, #313, #391, #462, #467, #855, #262, #18, #632, #799, #199 ) ) ;
#58 = CIRCLE ( 'NONE', #762, 0.05000000000000000971 ) ;
#59 = FACE_BOUND ( 'NONE', #595, .T. ) ;
#60 = EDGE_CURVE ( 'NONE', #534, #123, #891, .T. ) ;
#61 = CARTESIAN_POINT ( 'NONE',  ( -0.5000000000000000000, 0.3499999999999999778, 0.03125000000000000000 ) ) ;
#62 = ORIENTED_EDGE ( 'NONE', *, *, #839, .T. ) ;
#63 = ORIENTED_EDGE ( 'NONE', *, *, #224, .T. ) ;
#64 = CARTESIAN_POINT ( 'NONE',  ( -0.4999999999999999445, -0.3499999999999999778, 0.03125000000000000000 ) ) ;
#65 = DIRECTION ( 'NONE',  ( 0.000000000000000000, 0.000000000000000000, 1.000000000000000000 ) ) ;
#66 = CARTESIAN_POINT ( 'NONE',  ( 0.3500000000000000888, -0.2499999999999999167, -0.03125000000000000000 ) ) ;
#67 = CARTESIAN_POINT ( 'NONE',  ( 0.5000000000000001110, 0.1187499999999999944, 0.1462500000000000189 ) ) ;
#68 = PLANE ( 'NONE',  #787 ) ;
#69 = LINE ( 'NONE', #279, #317 ) ;
#70 = CIRCLE ( 'NONE', #565, 0.1000000000000000194 ) ;
#71 = EDGE_CURVE ( 'NONE', #48, #396, #756, .T. ) ;
#72 = VECTOR ( 'NONE', #511, 39.37007874015748143 ) ;
#73 = EDGE_LOOP ( 'NONE', ( #723, #831, #198, #591 ) ) ;
#74 = CIRCLE ( 'NONE', #149, 0.1000000000000000194 ) ;
#75 = CARTESIAN_POINT ( 'NONE',  ( 0.000000000000000000, 0.000000000000000000, -0.03125000000000000000 ) ) ;
#76 = LINE ( 'NONE', #286, #680 ) ;
#77 = CARTESIAN_POINT ( 'NONE',  ( -0.3999999999999999667, 0.2499999999999999167, -0.03125000000000000000 ) ) ;
#78 = ORIENTED_EDGE ( 'NONE', *, *, #784, .F. ) ;
#79 = EDGE_CURVE ( 'NONE', #288, #51, #152, .T. ) ;
#80 = CARTESIAN_POINT ( 'NONE',  ( 0.5000000000000001110, -0.2499999999999999167, 0.03125000000000000000 ) ) ;
#81 = CARTESIAN_POINT ( 'NONE',  ( 0.4000000000000000777, -0.2499999999999999167, -0.03125000000000000000 ) ) ;
#82 = DIRECTION ( 'NONE',  ( 9.756599977372368637E-17, -1.000000000000000000, 0.000000000000000000 ) ) ;
#83 = ORIENTED_EDGE ( 'NONE', *, *, #375, .F. ) ;
#84 = CARTESIAN_POINT ( 'NONE',  ( -0.4000000000000000777, -0.2499999999999999167, 0.03125000000000000000 ) ) ;
#85 = PLANE ( 'NONE',  #246 ) ;
#86 = EDGE_LOOP ( 'NONE', ( #867, #679, #814, #126 ) ) ;
#87 = VECTOR ( 'NONE', #358, 39.37007874015748143 ) ;
#88 = LINE ( 'NONE', #27, #758 ) ;
#89 = ADVANCED_FACE ( 'NONE', ( #217 ), #85, .F. ) ;
#90 = DIRECTION ( 'NONE',  ( 1.000000000000000000, 0.000000000000000000, 0.000000000000000000 ) ) ;
#91 = VERTEX_POINT ( 'NONE', #540 ) ;
#92 = DIRECTION ( 'NONE',  ( 1.019346266292635091E-16, -1.000000000000000000, 0.000000000000000000 ) ) ;
#93 = EDGE_CURVE ( 'NONE', #98, #184, #861, .T. ) ;
#94 = DIRECTION ( 'NONE',  ( -0.000000000000000000, -0.000000000000000000, 1.000000000000000000 ) ) ;
#95 = ORIENTED_EDGE ( 'NONE', *, *, #648, .F. ) ;
#96 = CARTESIAN_POINT ( 'NONE',  ( 0.4000000000000000777, -0.2499999999999999167, 0.03125000000000000000 ) ) ;
#97 = CARTESIAN_POINT ( 'NONE',  ( -0.4500000000000001221, -0.2499999999999999167, -0.03125000000000000000 ) ) ;
#98 = VERTEX_POINT ( 'NONE', #843 ) ;
#99 = EDGE_CURVE ( 'NONE', #244, #497, #204, .T. ) ;
#100 = AXIS2_PLACEMENT_3D ( 'NONE', #367, #572, #570 ) ;
#101 = MECHANICAL_DESIGN_GEOMETRIC_PRESENTATION_REPRESENTATION (  '', ( #697 ), #651 ) ;
#102 = CARTESIAN_POINT ( 'NONE',  ( -0.4999999999999999445, -0.2499999999999999167, -0.03125000000000000000 ) ) ;
#103 = VECTOR ( 'NONE', #558, 39.37007874015748143 ) ;
#104 = CARTESIAN_POINT ( 'NONE',  ( 0.3500000000000000888, -0.2499999999999999167, 0.03125000000000000000 ) ) ;
#105 = VECTOR ( 'NONE', #512, 39.37007874015748143 ) ;
#106 = VERTEX_POINT ( 'NONE', #3 ) ;
#107 = EDGE_CURVE ( 'NONE', #280, #525, #69, .T. ) ;
#108 = LINE ( 'NONE', #786, #421 ) ;
#109 = CARTESIAN_POINT ( 'NONE',  ( -0.5000000000000000000, 0.3499999999999999778, -0.03125000000000000000 ) ) ;
#110 = ORIENTED_EDGE ( 'NONE', *, *, #259, .T. ) ;
#111 = DIRECTION ( 'NONE',  ( -1.019346266292635091E-16, -1.000000000000000000, 0.000000000000000000 ) ) ;
#112 = CYLINDRICAL_SURFACE ( 'NONE', #879, 0.05000000000000000971 ) ;
#113 = ORIENTED_EDGE ( 'NONE', *, *, #230, .T. ) ;
#114 = DIRECTION ( 'NONE',  ( 0.000000000000000000, 0.000000000000000000, 1.000000000000000000 ) ) ;
#115 = CIRCLE ( 'NONE', #459, 0.1000000000000000194 ) ;
#116 = CARTESIAN_POINT ( 'NONE',  ( 0.5000000000000000000, 0.2499999999999999722, 0.03125000000000000000 ) ) ;
#117 = EDGE_CURVE ( 'NONE', #377, #417, #44, .T. ) ;
#118 = VECTOR ( 'NONE', #772, 39.37007874015748143 ) ;
#119 = ORIENTED_EDGE ( 'NONE', *, *, #792, .F. ) ;
#120 = PRESENTATION_STYLE_ASSIGNMENT (( #724 ) ) ;
#121 = DIRECTION ( 'NONE',  ( 1.000000000000000000, 0.000000000000000000, 0.000000000000000000 ) ) ;
#122 = EDGE_CURVE ( 'NONE', #35, #344, #274, .T. ) ;
#123 = VERTEX_POINT ( 'NONE', #160 ) ;
#124 = ORIENTED_EDGE ( 'NONE', *, *, #211, .T. ) ;
#125 = CARTESIAN_POINT ( 'NONE',  ( -0.3999999999999999667, 0.2499999999999999167, -0.03125000000000000000 ) ) ;
#126 = ORIENTED_EDGE ( 'NONE', *, *, #487, .T. ) ;
#127 = EDGE_CURVE ( 'NONE', #781, #123, #74, .T. ) ;
#128 = DIRECTION ( 'NONE',  ( -1.951319995474473727E-16, 1.000000000000000000, -0.000000000000000000 ) ) ;
#129 = AXIS2_PLACEMENT_3D ( 'NONE', #96, #625, #640 ) ;
#130 = LINE ( 'NONE', #61, #105 ) ;
#131 = VECTOR ( 'NONE', #409, 39.37007874015748143 ) ;
#132 = ORIENTED_EDGE ( 'NONE', *, *, #696, .F. ) ;
#133 = AXIS2_PLACEMENT_3D ( 'NONE', #34, #296, #846 ) ;
#134 = VERTEX_POINT ( 'NONE', #496 ) ;
#135 = DIRECTION ( 'NONE',  ( -0.000000000000000000, -0.000000000000000000, 1.000000000000000000 ) ) ;
#136 = CARTESIAN_POINT ( 'NONE',  ( -0.3999999999999999112, -0.2499999999999999167, 0.03125000000000000000 ) ) ;
#137 = EDGE_LOOP ( 'NONE', ( #357, #45, #785, #602 ) ) ;
#138 = DIRECTION ( 'NONE',  ( -1.951319995474473727E-16, 1.000000000000000000, -0.000000000000000000 ) ) ;
#139 = DIRECTION ( 'NONE',  ( -0.000000000000000000, -0.000000000000000000, 1.000000000000000000 ) ) ;
#140 = EDGE_CURVE ( 'NONE', #733, #534, #436, .T. ) ;
#141 = DIRECTION ( 'NONE',  ( -1.000000000000000000, -1.019346266292635091E-16, 0.000000000000000000 ) ) ;
#142 = ORIENTED_EDGE ( 'NONE', *, *, #725, .F. ) ;
#143 = DIRECTION ( 'NONE',  ( 0.000000000000000000, 0.000000000000000000, 1.000000000000000000 ) ) ;
#144 = CARTESIAN_POINT ( 'NONE',  ( 0.3325000000000000733, -0.1187499999999999944, 0.03125000000000000000 ) ) ;
#145 = EDGE_CURVE ( 'NONE', #479, #765, #429, .T. ) ;
#146 = DIRECTION ( 'NONE',  ( -1.000000000000000000, 0.000000000000000000, 0.000000000000000000 ) ) ;
#147 = AXIS2_PLACEMENT_3D ( 'NONE', #842, #428, #775 ) ;
#148 = ORIENTED_EDGE ( 'NONE', *, *, #708, .T. ) ;
#149 = AXIS2_PLACEMENT_3D ( 'NONE', #233, #788, #300 ) ;
#150 = DIRECTION ( 'NONE',  ( -0.000000000000000000, -0.000000000000000000, -1.000000000000000000 ) ) ;
#151 = LINE ( 'NONE', #212, #354 ) ;
#152 = LINE ( 'NONE', #763, #507 ) ;
#153 = ORIENTED_EDGE ( 'NONE', *, *, #677, .F. ) ;
#154 = CARTESIAN_POINT ( 'NONE',  ( 0.5000000000000001110, -0.1187499999999999667, 0.1462500000000000189 ) ) ;
#155 = DIRECTION ( 'NONE',  ( -2.038692532585270183E-16, 1.000000000000000000, 0.000000000000000000 ) ) ;
#156 = VERTEX_POINT ( 'NONE', #783 ) ;
#157 = EDGE_CURVE ( 'NONE', #486, #377, #644, .T. ) ;
#158 = SHAPE_DEFINITION_REPRESENTATION ( #672, #232 ) ;
#159 = CARTESIAN_POINT ( 'NONE',  ( 0.3325000000000000733, -0.1187499999999999944, 0.03125000000000000000 ) ) ;
#160 = CARTESIAN_POINT ( 'NONE',  ( 0.4000000000000000222, -0.3499999999999999778, -0.03125000000000000000 ) ) ;
#161 = EDGE_LOOP ( 'NONE', ( #148, #263 ) ) ;
#162 = VECTOR ( 'NONE', #318, 39.37007874015748143 ) ;
#163 = AXIS2_PLACEMENT_3D ( 'NONE', #471, #549, #411 ) ;
#164 = LINE ( 'NONE', #424, #711 ) ;
#165 = FACE_OUTER_BOUND ( 'NONE', #73, .T. ) ;
#166 = ORIENTED_EDGE ( 'NONE', *, *, #802, .F. ) ;
#167 = DIRECTION ( 'NONE',  ( 0.000000000000000000, 0.000000000000000000, 1.000000000000000000 ) ) ;
#168 = DIRECTION ( 'NONE',  ( 1.000000000000000000, 0.000000000000000000, 0.000000000000000000 ) ) ;
#169 = EDGE_CURVE ( 'NONE', #321, #280, #16, .T. ) ;
#170 = ORIENTED_EDGE ( 'NONE', *, *, #157, .T. ) ;
#171 = CARTESIAN_POINT ( 'NONE',  ( -0.3999999999999999667, 0.3499999999999999778, 0.03125000000000000000 ) ) ;
#172 = DIRECTION ( 'NONE',  ( 1.000000000000000000, 0.000000000000000000, 0.000000000000000000 ) ) ;
#173 = ADVANCED_FACE ( 'NONE', ( #573 ), #575, .F. ) ;
#174 = DIRECTION ( 'NONE',  ( -1.000000000000000000, 0.000000000000000000, 0.000000000000000000 ) ) ;
#175 = VECTOR ( 'NONE', #588, 39.37007874015748143 ) ;
#176 = DIRECTION ( 'NONE',  ( 0.000000000000000000, 0.000000000000000000, -1.000000000000000000 ) ) ;
#177 = ORIENTED_EDGE ( 'NONE', *, *, #398, .F. ) ;
#178 = DIRECTION ( 'NONE',  ( 1.000000000000000000, 9.756599977372368637E-17, -0.000000000000000000 ) ) ;
#179 = DIRECTION ( 'NONE',  ( -0.000000000000000000, -0.000000000000000000, -1.000000000000000000 ) ) ;
#180 = ORIENTED_EDGE ( 'NONE', *, *, #276, .F. ) ;
#181 = EDGE_CURVE ( 'NONE', #510, #321, #13, .T. ) ;
#182 = SURFACE_SIDE_STYLE ('',( #797 ) ) ;
#183 = FACE_OUTER_BOUND ( 'NONE', #778, .T. ) ;
#184 = VERTEX_POINT ( 'NONE', #104 ) ;
#185 = FACE_OUTER_BOUND ( 'NONE', #86, .T. ) ;
#186 = AXIS2_PLACEMENT_3D ( 'NONE', #495, #370, #779 ) ;
#187 = PRODUCT_DEFINITION ( 'UNKNOWN', '', #42, #41 ) ;
#188 = VECTOR ( 'NONE', #277, 39.37007874015748143 ) ;
#189 = PLANE ( 'NONE',  #714 ) ;
#190 = ORIENTED_EDGE ( 'NONE', *, *, #708, .F. ) ;
#191 = ORIENTED_EDGE ( 'NONE', *, *, #336, .F. ) ;
#192 = LENGTH_MEASURE_WITH_UNIT ( LENGTH_MEASURE( 0.02539999999999999897 ), #587 );
#193 = CARTESIAN_POINT ( 'NONE',  ( -0.3325000000000000733, -0.1187499999999999944, 0.03125000000000000000 ) ) ;
#194 = EDGE_CURVE ( 'NONE', #134, #589, #860, .T. ) ;
#195 = VERTEX_POINT ( 'NONE', #499 ) ;
#196 = EDGE_LOOP ( 'NONE', ( #203, #738, #301, #241 ) ) ;
#197 = DIRECTION ( 'NONE',  ( 0.000000000000000000, 0.000000000000000000, 1.000000000000000000 ) ) ;
#198 = ORIENTED_EDGE ( 'NONE', *, *, #569, .T. ) ;
#199 = ORIENTED_EDGE ( 'NONE', *, *, #79, .F. ) ;
#200 = DIRECTION ( 'NONE',  ( -1.000000000000000000, -1.951319995474473727E-16, 0.000000000000000000 ) ) ;
#201 = VECTOR ( 'NONE', #227, 39.37007874015748143 ) ;
#202 = AXIS2_PLACEMENT_3D ( 'NONE', #827, #210, #330 ) ;
#203 = ORIENTED_EDGE ( 'NONE', *, *, #750, .F. ) ;
#204 = CIRCLE ( 'NONE', #699, 0.05000000000000000971 ) ;
#205 = VECTOR ( 'NONE', #240, 39.37007874015748143 ) ;
#206 = CARTESIAN_POINT ( 'NONE',  ( 0.4000000000000000777, -0.2499999999999999167, -0.03125000000000000000 ) ) ;
#207 = CARTESIAN_POINT ( 'NONE',  ( -0.4500000000000001221, -0.2499999999999999167, -0.03125000000000000000 ) ) ;
#208 = FACE_OUTER_BOUND ( 'NONE', #598, .T. ) ;
#209 = ORIENTED_EDGE ( 'NONE', *, *, #99, .F. ) ;
#210 = DIRECTION ( 'NONE',  ( 0.000000000000000000, 0.000000000000000000, 1.000000000000000000 ) ) ;
#211 = EDGE_CURVE ( 'NONE', #479, #258, #306, .T. ) ;
#212 = CARTESIAN_POINT ( 'NONE',  ( -0.5000000000000001110, 0.1187499999999999944, 0.1462500000000000189 ) ) ;
#213 = DIRECTION ( 'NONE',  ( -1.000000000000000000, -0.000000000000000000, -0.000000000000000000 ) ) ;
#214 = EDGE_LOOP ( 'NONE', ( #841, #612, #347, #309, #709, #372, #352, #324 ) ) ;
#215 = PLANE ( 'NONE',  #537 ) ;
#216 = CARTESIAN_POINT ( 'NONE',  ( -0.3325000000000000733, 0.1187499999999999806, 0.03125000000000000000 ) ) ;
#217 = FACE_OUTER_BOUND ( 'NONE', #530, .T. ) ;
#218 = EDGE_CURVE ( 'NONE', #14, #249, #579, .T. ) ;
#219 = VECTOR ( 'NONE', #139, 39.37007874015748143 ) ;
#220 = ORIENTED_EDGE ( 'NONE', *, *, #343, .T. ) ;
#221 = VECTOR ( 'NONE', #21, 39.37007874015748143 ) ;
#222 = VECTOR ( 'NONE', #179, 39.37007874015748143 ) ;
#223 = CARTESIAN_POINT ( 'NONE',  ( -0.3500000000000000888, -0.2499999999999999167, -0.03125000000000000000 ) ) ;
#224 = EDGE_CURVE ( 'NONE', #249, #98, #628, .T. ) ;
#225 = ORIENTED_EDGE ( 'NONE', *, *, #441, .T. ) ;
#226 = DIRECTION ( 'NONE',  ( 0.000000000000000000, 0.000000000000000000, 1.000000000000000000 ) ) ;
#227 = DIRECTION ( 'NONE',  ( -0.000000000000000000, -0.000000000000000000, 1.000000000000000000 ) ) ;
#228 = CARTESIAN_POINT ( 'NONE',  ( -0.3499999999999999778, 0.2499999999999999167, 0.03125000000000000000 ) ) ;
#229 = ORIENTED_EDGE ( 'NONE', *, *, #122, .F. ) ;
#230 = EDGE_CURVE ( 'NONE', #443, #396, #432, .T. ) ;
#231 = DIRECTION ( 'NONE',  ( -0.000000000000000000, -0.000000000000000000, 1.000000000000000000 ) ) ;
#232 = ADVANCED_BREP_SHAPE_REPRESENTATION ( 'Adafruit BME688', ( #776, #476 ), #303 ) ;
#233 = CARTESIAN_POINT ( 'NONE',  ( 0.4000000000000000777, -0.2499999999999999167, -0.03125000000000000000 ) ) ;
#234 = VECTOR ( 'NONE', #653, 39.37007874015748143 ) ;
#235 = ADVANCED_FACE ( 'NONE', ( #712 ), #777, .F. ) ;
#236 = FACE_BOUND ( 'NONE', #665, .T. ) ;
#237 = ORIENTED_EDGE ( 'NONE', *, *, #886, .F. ) ;
#238 = PLANE ( 'NONE',  #315 ) ;
#239 = ADVANCED_FACE ( 'NONE', ( #165 ), #426, .F. ) ;
#240 = DIRECTION ( 'NONE',  ( -1.000000000000000000, 1.019346266292635091E-16, -0.000000000000000000 ) ) ;
#241 = ORIENTED_EDGE ( 'NONE', *, *, #500, .F. ) ;
#242 = CARTESIAN_POINT ( 'NONE',  ( -0.5000000000000001110, 0.1187499999999999944, 0.1462500000000000189 ) ) ;
#243 = DIRECTION ( 'NONE',  ( -0.000000000000000000, -0.000000000000000000, 1.000000000000000000 ) ) ;
#244 = VERTEX_POINT ( 'NONE', #631 ) ;
#245 = AXIS2_PLACEMENT_3D ( 'NONE', #12, #65, #272 ) ;
#246 = AXIS2_PLACEMENT_3D ( 'NONE', #416, #355, #621 ) ;
#247 = DIRECTION ( 'NONE',  ( 0.000000000000000000, 0.000000000000000000, 1.000000000000000000 ) ) ;
#248 = DIRECTION ( 'NONE',  ( 0.000000000000000000, 1.000000000000000000, 0.000000000000000000 ) ) ;
#249 = VERTEX_POINT ( 'NONE', #260 ) ;
#250 = EDGE_CURVE ( 'NONE', #765, #443, #658, .T. ) ;
#251 = DIRECTION ( 'NONE',  ( 1.000000000000000000, 0.000000000000000000, 0.000000000000000000 ) ) ;
#252 = DIMENSIONAL_EXPONENTS ( 1.000000000000000000, 0.000000000000000000, 0.000000000000000000, 0.000000000000000000, 0.000000000000000000, 0.000000000000000000, 0.000000000000000000 ) ;
#253 = CYLINDRICAL_SURFACE ( 'NONE', #524, 0.1000000000000000194 ) ;
#254 = ORIENTED_EDGE ( 'NONE', *, *, #494, .T. ) ;
#255 = FACE_OUTER_BOUND ( 'NONE', #214, .T. ) ;
#256 = DIRECTION ( 'NONE',  ( 0.000000000000000000, -0.000000000000000000, 1.000000000000000000 ) ) ;
#257 = EDGE_LOOP ( 'NONE', ( #852, #734, #753, #715, #737, #382, #556, #333 ) ) ;
#258 = VERTEX_POINT ( 'NONE', #193 ) ;
#259 = EDGE_CURVE ( 'NONE', #401, #702, #568, .T. ) ;
#260 = CARTESIAN_POINT ( 'NONE',  ( 0.4500000000000001221, -0.2499999999999999167, -0.03125000000000000000 ) ) ;
#261 = VECTOR ( 'NONE', #509, 39.37007874015748143 ) ;
#262 = ORIENTED_EDGE ( 'NONE', *, *, #750, .T. ) ;
#263 = ORIENTED_EDGE ( 'NONE', *, *, #99, .T. ) ;
#264 = CARTESIAN_POINT ( 'NONE',  ( -0.4000000000000000777, -0.2499999999999999167, -0.03125000000000000000 ) ) ;
#265 = ADVANCED_FACE ( 'NONE', ( #870 ), #189, .T. ) ;
#266 = ORIENTED_EDGE ( 'NONE', *, *, #22, .T. ) ;
#267 = FACE_OUTER_BOUND ( 'NONE', #257, .T. ) ;
#268 = DIRECTION ( 'NONE',  ( -0.000000000000000000, -0.000000000000000000, 1.000000000000000000 ) ) ;
#269 = ORIENTED_EDGE ( 'NONE', *, *, #796, .F. ) ;
#270 = CARTESIAN_POINT ( 'NONE',  ( 0.5000000000000000000, 0.3499999999999999778, 0.03125000000000000000 ) ) ;
#271 = AXIS2_PLACEMENT_3D ( 'NONE', #618, #135, #687 ) ;
#272 = DIRECTION ( 'NONE',  ( 1.000000000000000000, 0.000000000000000000, 0.000000000000000000 ) ) ;
#273 = CARTESIAN_POINT ( 'NONE',  ( -0.5000000000000000000, 0.3499999999999999778, 0.03125000000000000000 ) ) ;
#274 = CIRCLE ( 'NONE', #379, 0.05000000000000000971 ) ;
#275 = ORIENTED_EDGE ( 'NONE', *, *, #343, .F. ) ;
#276 = EDGE_CURVE ( 'NONE', #486, #25, #58, .T. ) ;
#277 = DIRECTION ( 'NONE',  ( 0.000000000000000000, -0.000000000000000000, 1.000000000000000000 ) ) ;
#278 = CARTESIAN_POINT ( 'NONE',  ( -0.3500000000000000888, -0.2499999999999999167, 0.03125000000000000000 ) ) ;
#279 = CARTESIAN_POINT ( 'NONE',  ( -0.5000000000000000000, 0.3499999999999999778, 0.03125000000000000000 ) ) ;
#280 = VERTEX_POINT ( 'NONE', #662 ) ;
#281 = DIRECTION ( 'NONE',  ( 1.000000000000000000, -2.038692532585270183E-16, 0.000000000000000000 ) ) ;
#282 = FACE_OUTER_BOUND ( 'NONE', #818, .T. ) ;
#283 = DIRECTION ( 'NONE',  ( 1.000000000000000000, 0.000000000000000000, 0.000000000000000000 ) ) ;
#284 = ORIENTED_EDGE ( 'NONE', *, *, #71, .T. ) ;
#285 = DIRECTION ( 'NONE',  ( 1.000000000000000000, 0.000000000000000000, 0.000000000000000000 ) ) ;
#286 = CARTESIAN_POINT ( 'NONE',  ( 0.5000000000000001110, -0.2499999999999999167, 0.03125000000000000000 ) ) ;
#287 = ADVANCED_FACE ( 'NONE', ( #722 ), #112, .F. ) ;
#288 = VERTEX_POINT ( 'NONE', #517 ) ;
#289 = AXIS2_PLACEMENT_3D ( 'NONE', #84, #353, #538 ) ;
#290 = EDGE_LOOP ( 'NONE', ( #804, #307 ) ) ;
#291 = CIRCLE ( 'NONE', #493, 0.1000000000000000194 ) ;
#292 = CYLINDRICAL_SURFACE ( 'NONE', #100, 0.05000000000000000971 ) ;
#293 = DIRECTION ( 'NONE',  ( -1.000000000000000000, 0.000000000000000000, 0.000000000000000000 ) ) ;
#294 = ORIENTED_EDGE ( 'NONE', *, *, #140, .T. ) ;
#295 = CYLINDRICAL_SURFACE ( 'NONE', #506, 0.1000000000000000194 ) ;
#296 = DIRECTION ( 'NONE',  ( -0.000000000000000000, -0.000000000000000000, 1.000000000000000000 ) ) ;
#297 = ORIENTED_EDGE ( 'NONE', *, *, #259, .F. ) ;
#298 = EDGE_CURVE ( 'NONE', #501, #656, #668, .T. ) ;
#299 = DIRECTION ( 'NONE',  ( -0.000000000000000000, -0.000000000000000000, 1.000000000000000000 ) ) ;
#300 = DIRECTION ( 'NONE',  ( 1.000000000000000000, 0.000000000000000000, 0.000000000000000000 ) ) ;
#301 = ORIENTED_EDGE ( 'NONE', *, *, #127, .F. ) ;
#302 = VECTOR ( 'NONE', #399, 39.37007874015748143 ) ;
#303 =( GEOMETRIC_REPRESENTATION_CONTEXT ( 3 ) GLOBAL_UNCERTAINTY_ASSIGNED_CONTEXT ( ( #374 ) ) GLOBAL_UNIT_ASSIGNED_CONTEXT ( ( #15, #791, #624 ) ) REPRESENTATION_CONTEXT ( 'NONE', 'WORKASPACE' ) );
#304 = VECTOR ( 'NONE', #571, 39.37007874015748143 ) ;
#305 = FACE_OUTER_BOUND ( 'NONE', #563, .T. ) ;
#306 = LINE ( 'NONE', #562, #744 ) ;
#307 = ORIENTED_EDGE ( 'NONE', *, *, #117, .F. ) ;
#308 = PLANE ( 'NONE',  #186 ) ;
#309 = ORIENTED_EDGE ( 'NONE', *, *, #764, .F. ) ;
#310 = APPLICATION_PROTOCOL_DEFINITION ( 'draft international standard', 'automotive_design', 1998, #873 ) ;
#311 = DIRECTION ( 'NONE',  ( -1.000000000000000000, 0.000000000000000000, 0.000000000000000000 ) ) ;
#312 = EDGE_CURVE ( 'NONE', #645, #820, #647, .T. ) ;
#313 = ORIENTED_EDGE ( 'NONE', *, *, #839, .F. ) ;
#314 = CARTESIAN_POINT ( 'NONE',  ( 0.000000000000000000, 0.000000000000000000, 0.000000000000000000 ) ) ;
#315 = AXIS2_PLACEMENT_3D ( 'NONE', #364, #92, #484 ) ;
#316 = COLOUR_RGB ( '',0.7921568627450980005, 0.8196078431372548767, 0.9333333333333333481 ) ;
#317 = VECTOR ( 'NONE', #213, 39.37007874015748143 ) ;
#318 = DIRECTION ( 'NONE',  ( -1.000000000000000000, -1.019346266292635091E-16, 0.000000000000000000 ) ) ;
#319 = LINE ( 'NONE', #866, #222 ) ;
#320 = LINE ( 'NONE', #373, #774 ) ;
#321 = VERTEX_POINT ( 'NONE', #116 ) ;
#322 = EDGE_CURVE ( 'NONE', #156, #541, #130, .T. ) ;
#323 = DIRECTION ( 'NONE',  ( -0.000000000000000000, -0.000000000000000000, 1.000000000000000000 ) ) ;
#324 = ORIENTED_EDGE ( 'NONE', *, *, #784, .T. ) ;
#325 = PLANE ( 'NONE',  #837 ) ;
#326 = AXIS2_PLACEMENT_3D ( 'NONE', #54, #114, #452 ) ;
#327 = CARTESIAN_POINT ( 'NONE',  ( 0.3999999999999999667, 0.2499999999999999167, 0.03125000000000000000 ) ) ;
#328 = ORIENTED_EDGE ( 'NONE', *, *, #312, .T. ) ;
#329 = AXIS2_PLACEMENT_3D ( 'NONE', #125, #323, #449 ) ;
#330 = DIRECTION ( 'NONE',  ( -1.000000000000000000, 0.000000000000000000, 0.000000000000000000 ) ) ;
#331 = CARTESIAN_POINT ( 'NONE',  ( -0.3999999999999999667, 0.2499999999999999167, -0.03125000000000000000 ) ) ;
#332 = VERTEX_POINT ( 'NONE', #55 ) ;
#333 = ORIENTED_EDGE ( 'NONE', *, *, #500, .T. ) ;
#334 =( NAMED_UNIT ( * ) SI_UNIT ( $, .STERADIAN. ) SOLID_ANGLE_UNIT ( ) );
#335 = FACE_OUTER_BOUND ( 'NONE', #888, .T. ) ;
#336 = EDGE_CURVE ( 'NONE', #501, #51, #319, .T. ) ;
#337 = LINE ( 'NONE', #611, #878 ) ;
#338 = FACE_OUTER_BOUND ( 'NONE', #811, .T. ) ;
#339 = VECTOR ( 'NONE', #751, 39.37007874015748143 ) ;
#340 = CARTESIAN_POINT ( 'NONE',  ( 0.4000000000000000222, -0.3499999999999999778, 0.03125000000000000000 ) ) ;
#341 = VECTOR ( 'NONE', #402, 39.37007874015748143 ) ;
#342 = DIRECTION ( 'NONE',  ( -0.000000000000000000, 0.000000000000000000, -1.000000000000000000 ) ) ;
#343 = EDGE_CURVE ( 'NONE', #134, #332, #291, .T. ) ;
#344 = VERTEX_POINT ( 'NONE', #523 ) ;
#345 = DIRECTION ( 'NONE',  ( 0.000000000000000000, 0.000000000000000000, -1.000000000000000000 ) ) ;
#346 = EDGE_LOOP ( 'NONE', ( #844, #806, #863, #505 ) ) ;
#347 = ORIENTED_EDGE ( 'NONE', *, *, #322, .F. ) ;
#348 = ADVANCED_FACE ( 'NONE', ( #445 ), #253, .T. ) ;
#349 = CARTESIAN_POINT ( 'NONE',  ( -0.5000000000000001110, 0.1187499999999999944, 0.1462500000000000189 ) ) ;
#350 = DIRECTION ( 'NONE',  ( 1.000000000000000000, 0.000000000000000000, 0.000000000000000000 ) ) ;
#351 = DIRECTION ( 'NONE',  ( 0.000000000000000000, 0.000000000000000000, 1.000000000000000000 ) ) ;
#352 = ORIENTED_EDGE ( 'NONE', *, *, #71, .F. ) ;
#353 = DIRECTION ( 'NONE',  ( 0.000000000000000000, 0.000000000000000000, 1.000000000000000000 ) ) ;
#354 = VECTOR ( 'NONE', #469, 39.37007874015748143 ) ;
#355 = DIRECTION ( 'NONE',  ( 0.000000000000000000, -1.000000000000000000, 0.000000000000000000 ) ) ;
#356 = CIRCLE ( 'NONE', #202, 0.05000000000000000971 ) ;
#357 = ORIENTED_EDGE ( 'NONE', *, *, #619, .T. ) ;
#358 = DIRECTION ( 'NONE',  ( -0.000000000000000000, -0.000000000000000000, -1.000000000000000000 ) ) ;
#359 = DIRECTION ( 'NONE',  ( 0.000000000000000000, 0.000000000000000000, 1.000000000000000000 ) ) ;
#360 = ORIENTED_EDGE ( 'NONE', *, *, #764, .T. ) ;
#361 = CARTESIAN_POINT ( 'NONE',  ( -0.3999999999999999667, 0.3499999999999999778, 0.03125000000000000000 ) ) ;
#362 = DIRECTION ( 'NONE',  ( 1.000000000000000000, 0.000000000000000000, 0.000000000000000000 ) ) ;
#363 = ADVANCED_FACE ( 'NONE', ( #183 ), #47, .F. ) ;
#364 = CARTESIAN_POINT ( 'NONE',  ( 0.5000000000000001110, 0.1187499999999999944, 0.1462500000000000189 ) ) ;
#365 = CARTESIAN_POINT ( 'NONE',  ( 0.5000000000000000000, 0.2499999999999999722, 0.03125000000000000000 ) ) ;
#366 = EDGE_LOOP ( 'NONE', ( #297, #269 ) ) ;
#367 = CARTESIAN_POINT ( 'NONE',  ( 0.3999999999999999667, 0.2499999999999999167, -0.03125000000000000000 ) ) ;
#368 = EDGE_LOOP ( 'NONE', ( #113, #413, #623, #741 ) ) ;
#369 = ADVANCED_FACE ( 'NONE', ( #731 ), #385, .T. ) ;
#370 = DIRECTION ( 'NONE',  ( -0.000000000000000000, 0.000000000000000000, 1.000000000000000000 ) ) ;
#371 = CARTESIAN_POINT ( 'NONE',  ( 0.4000000000000000777, -0.2499999999999999167, -0.03125000000000000000 ) ) ;
#372 = ORIENTED_EDGE ( 'NONE', *, *, #826, .T. ) ;
#373 = CARTESIAN_POINT ( 'NONE',  ( 0.5000000000000000000, 0.3499999999999999778, -0.03125000000000000000 ) ) ;
#374 = UNCERTAINTY_MEASURE_WITH_UNIT (LENGTH_MEASURE( 1.000000000000000082E-05 ), #15, 'distance_accuracy_value', 'NONE');
#375 = EDGE_CURVE ( 'NONE', #106, #23, #474, .T. ) ;
#376 = DIRECTION ( 'NONE',  ( 0.000000000000000000, -0.000000000000000000, -1.000000000000000000 ) ) ;
#377 = VERTEX_POINT ( 'NONE', #389 ) ;
#378 = AXIS2_PLACEMENT_3D ( 'NONE', #880, #178, #807 ) ;
#379 = AXIS2_PLACEMENT_3D ( 'NONE', #77, #503, #168 ) ;
#380 = DIRECTION ( 'NONE',  ( -0.000000000000000000, -1.000000000000000000, -0.000000000000000000 ) ) ;
#381 = ADVANCED_FACE ( 'NONE', ( #335 ), #475, .F. ) ;
#382 = ORIENTED_EDGE ( 'NONE', *, *, #648, .T. ) ;
#383 = PLANE ( 'NONE',  #535 ) ;
#384 = DIMENSIONAL_EXPONENTS ( 1.000000000000000000, 0.000000000000000000, 0.000000000000000000, 0.000000000000000000, 0.000000000000000000, 0.000000000000000000, 0.000000000000000000 ) ;
#385 = CYLINDRICAL_SURFACE ( 'NONE', #552, 0.1000000000000000194 ) ;
#386 = ORIENTED_EDGE ( 'NONE', *, *, #117, .T. ) ;
#387 = ORIENTED_EDGE ( 'NONE', *, *, #250, .F. ) ;
#388 = CARTESIAN_POINT ( 'NONE',  ( -0.5000000000000001110, -0.1187499999999999667, 0.1462500000000000189 ) ) ;
#389 = CARTESIAN_POINT ( 'NONE',  ( -0.4500000000000001221, -0.2499999999999999167, 0.03125000000000000000 ) ) ;
#390 = ORIENTED_EDGE ( 'NONE', *, *, #593, .T. ) ;
#391 = ORIENTED_EDGE ( 'NONE', *, *, #828, .F. ) ;
#392 = DIRECTION ( 'NONE',  ( 1.000000000000000000, 0.000000000000000000, 0.000000000000000000 ) ) ;
#393 = VECTOR ( 'NONE', #82, 39.37007874015748143 ) ;
#394 = CARTESIAN_POINT ( 'NONE',  ( 0.3999999999999999667, 0.2499999999999999167, 0.03125000000000000000 ) ) ;
#395 = VECTOR ( 'NONE', #29, 39.37007874015748143 ) ;
#396 = VERTEX_POINT ( 'NONE', #605 ) ;
#397 = ORIENTED_EDGE ( 'NONE', *, *, #868, .T. ) ;
#398 = EDGE_CURVE ( 'NONE', #195, #332, #833, .T. ) ;
#399 = DIRECTION ( 'NONE',  ( 0.000000000000000000, 0.000000000000000000, -1.000000000000000000 ) ) ;
#400 = CARTESIAN_POINT ( 'NONE',  ( 0.3325000000000000733, -0.1187499999999999944, 0.1462500000000000189 ) ) ;
#401 = VERTEX_POINT ( 'NONE', #767 ) ;
#402 = DIRECTION ( 'NONE',  ( 0.000000000000000000, 1.000000000000000000, 0.000000000000000000 ) ) ;
#403 = CARTESIAN_POINT ( 'NONE',  ( -0.3999999999999999667, 0.2499999999999999167, 0.03125000000000000000 ) ) ;
#404 = EDGE_CURVE ( 'NONE', #123, #518, #838, .T. ) ;
#405 = DIRECTION ( 'NONE',  ( 0.000000000000000000, 0.000000000000000000, 1.000000000000000000 ) ) ;
#406 = ORIENTED_EDGE ( 'NONE', *, *, #569, .F. ) ;
#407 = LINE ( 'NONE', #546, #805 ) ;
#408 = AXIS2_PLACEMENT_3D ( 'NONE', #874, #808, #736 ) ;
#409 = DIRECTION ( 'NONE',  ( -0.000000000000000000, -1.000000000000000000, -0.000000000000000000 ) ) ;
#410 = CIRCLE ( 'NONE', #566, 0.05000000000000000971 ) ;
#411 = DIRECTION ( 'NONE',  ( 1.000000000000000000, 0.000000000000000000, 0.000000000000000000 ) ) ;
#412 = EDGE_CURVE ( 'NONE', #195, #510, #849, .T. ) ;
#413 = ORIENTED_EDGE ( 'NONE', *, *, #826, .F. ) ;
#414 = DIRECTION ( 'NONE',  ( -0.000000000000000000, -0.000000000000000000, 1.000000000000000000 ) ) ;
#415 = CARTESIAN_POINT ( 'NONE',  ( 0.5000000000000000000, 0.2499999999999999722, -0.03125000000000000000 ) ) ;
#416 = CARTESIAN_POINT ( 'NONE',  ( -0.5000000000000000000, 0.3499999999999999778, 0.03125000000000000000 ) ) ;
#417 = VERTEX_POINT ( 'NONE', #278 ) ;
#418 = DIRECTION ( 'NONE',  ( -1.000000000000000000, -2.038692532585270183E-16, 0.000000000000000000 ) ) ;
#419 = ORIENTED_EDGE ( 'NONE', *, *, #169, .T. ) ;
#420 = LINE ( 'NONE', #710, #87 ) ;
#421 = VECTOR ( 'NONE', #431, 39.37007874015748143 ) ;
#422 = CARTESIAN_POINT ( 'NONE',  ( 0.4500000000000001221, -0.2499999999999999167, -0.03125000000000000000 ) ) ;
#423 = ORIENTED_EDGE ( 'NONE', *, *, #434, .T. ) ;
#424 = CARTESIAN_POINT ( 'NONE',  ( -0.5000000000000001110, -0.1187499999999999667, 0.1462500000000000189 ) ) ;
#425 = EDGE_CURVE ( 'NONE', #656, #642, #533, .T. ) ;
#426 = CYLINDRICAL_SURFACE ( 'NONE', #622, 0.05000000000000000971 ) ;
#427 = EDGE_LOOP ( 'NONE', ( #790, #531, #582, #294 ) ) ;
#428 = DIRECTION ( 'NONE',  ( -0.000000000000000000, 0.000000000000000000, 1.000000000000000000 ) ) ;
#429 = LINE ( 'NONE', #490, #862 ) ;
#430 = EDGE_LOOP ( 'NONE', ( #893, #438, #275, #78 ) ) ;
#431 = DIRECTION ( 'NONE',  ( 0.000000000000000000, 1.000000000000000000, 0.000000000000000000 ) ) ;
#432 = LINE ( 'NONE', #854, #205 ) ;
#433 = ORIENTED_EDGE ( 'NONE', *, *, #633, .F. ) ;
#434 = EDGE_CURVE ( 'NONE', #497, #401, #465, .T. ) ;
#435 = CARTESIAN_POINT ( 'NONE',  ( 0.4000000000000000222, -0.3499999999999999778, 0.03125000000000000000 ) ) ;
#436 = LINE ( 'NONE', #780, #118 ) ;
#437 = CARTESIAN_POINT ( 'NONE',  ( -0.3999999999999999112, -0.3499999999999999778, 0.03125000000000000000 ) ) ;
#438 = ORIENTED_EDGE ( 'NONE', *, *, #559, .F. ) ;
#439 = PRODUCT_CONTEXT ( 'NONE', #873, 'mechanical' ) ;
#440 = FILL_AREA_STYLE_COLOUR ( '', #316 ) ;
#441 = EDGE_CURVE ( 'NONE', #280, #195, #692, .T. ) ;
#442 = ORIENTED_EDGE ( 'NONE', *, *, #593, .F. ) ;
#443 = VERTEX_POINT ( 'NONE', #216 ) ;
#444 = CARTESIAN_POINT ( 'NONE',  ( -0.3325000000000000733, 0.1187499999999999806, 0.1462500000000000189 ) ) ;
#445 = FACE_OUTER_BOUND ( 'NONE', #196, .T. ) ;
#446 = ADVANCED_FACE ( 'NONE', ( #282 ), #761, .F. ) ;
#447 = ORIENTED_EDGE ( 'NONE', *, *, #434, .F. ) ;
#448 = LINE ( 'NONE', #516, #72 ) ;
#449 = DIRECTION ( 'NONE',  ( 1.000000000000000000, 0.000000000000000000, 0.000000000000000000 ) ) ;
#450 = ORIENTED_EDGE ( 'NONE', *, *, #218, .T. ) ;
#451 = ORIENTED_EDGE ( 'NONE', *, *, #93, .F. ) ;
#452 = DIRECTION ( 'NONE',  ( 1.000000000000000000, 0.000000000000000000, 0.000000000000000000 ) ) ;
#453 = DIRECTION ( 'NONE',  ( -1.000000000000000000, 0.000000000000000000, 0.000000000000000000 ) ) ;
#454 = ORIENTED_EDGE ( 'NONE', *, *, #211, .F. ) ;
#455 = ORIENTED_EDGE ( 'NONE', *, *, #32, .F. ) ;
#456 = ADVANCED_FACE ( 'NONE', ( #543 ), #68, .F. ) ;
#457 = CIRCLE ( 'NONE', #892, 0.1000000000000000194 ) ;
#458 = CARTESIAN_POINT ( 'NONE',  ( -0.3999999999999999667, 0.2499999999999999167, 0.03125000000000000000 ) ) ;
#459 = AXIS2_PLACEMENT_3D ( 'NONE', #721, #580, #251 ) ;
#460 = CARTESIAN_POINT ( 'NONE',  ( -0.5000000000000000000, 0.3499999999999999778, -0.03125000000000000000 ) ) ;
#461 = VECTOR ( 'NONE', #243, 39.37007874015748143 ) ;
#462 = ORIENTED_EDGE ( 'NONE', *, *, #322, .T. ) ;
#463 = EDGE_CURVE ( 'NONE', #25, #486, #56, .T. ) ;
#464 = DIRECTION ( 'NONE',  ( 0.000000000000000000, 0.000000000000000000, -1.000000000000000000 ) ) ;
#465 = LINE ( 'NONE', #890, #219 ) ;
#466 = PLANE ( 'NONE',  #713 ) ;
#467 = ORIENTED_EDGE ( 'NONE', *, *, #515, .T. ) ;
#468 = CARTESIAN_POINT ( 'NONE',  ( 0.3999999999999999667, 0.2499999999999999167, -0.03125000000000000000 ) ) ;
#469 = DIRECTION ( 'NONE',  ( -1.000000000000000000, 1.019346266292635091E-16, -0.000000000000000000 ) ) ;
#470 = EDGE_CURVE ( 'NONE', #417, #377, #649, .T. ) ;
#471 = CARTESIAN_POINT ( 'NONE',  ( -0.4000000000000000777, -0.2499999999999999167, 0.03125000000000000000 ) ) ;
#472 = EDGE_LOOP ( 'NONE', ( #451, #406 ) ) ;
#473 = DIRECTION ( 'NONE',  ( 1.951319995474473727E-16, -1.000000000000000000, 0.000000000000000000 ) ) ;
#474 = CIRCLE ( 'NONE', #408, 0.05000000000000000971 ) ;
#475 = CYLINDRICAL_SURFACE ( 'NONE', #271, 0.05000000000000000971 ) ;
#476 = AXIS2_PLACEMENT_3D ( 'NONE', #314, #226, #864 ) ;
#477 = EDGE_CURVE ( 'NONE', #525, #48, #70, .T. ) ;
#478 = LINE ( 'NONE', #400, #620 ) ;
#479 = VERTEX_POINT ( 'NONE', #823 ) ;
#480 = APPLICATION_CONTEXT ( 'automotive_design' ) ;
#481 = FACE_BOUND ( 'NONE', #161, .T. ) ;
#482 = CARTESIAN_POINT ( 'NONE',  ( -0.4499999999999999556, 0.2499999999999999167, -0.03125000000000000000 ) ) ;
#483 = ORIENTED_EDGE ( 'NONE', *, *, #792, .T. ) ;
#484 = DIRECTION ( 'NONE',  ( 1.000000000000000000, 1.019346266292635091E-16, 0.000000000000000000 ) ) ;
#485 = DIRECTION ( 'NONE',  ( -0.000000000000000000, -0.000000000000000000, -1.000000000000000000 ) ) ;
#486 = VERTEX_POINT ( 'NONE', #207 ) ;
#487 = EDGE_CURVE ( 'NONE', #765, #513, #151, .T. ) ;
#488 = CARTESIAN_POINT ( 'NONE',  ( -0.3999999999999999112, -0.3499999999999999778, -0.03125000000000000000 ) ) ;
#489 = VECTOR ( 'NONE', #380, 39.37007874015748143 ) ;
#490 = CARTESIAN_POINT ( 'NONE',  ( -0.3325000000000000733, -0.1187499999999999944, 0.1462500000000000189 ) ) ;
#491 = CIRCLE ( 'NONE', #617, 0.05000000000000000971 ) ;
#492 = ORIENTED_EDGE ( 'NONE', *, *, #32, .T. ) ;
#493 = AXIS2_PLACEMENT_3D ( 'NONE', #331, #376, #654 ) ;
#494 = EDGE_CURVE ( 'NONE', #51, #645, #755, .T. ) ;
#495 = CARTESIAN_POINT ( 'NONE',  ( 0.000000000000000000, 0.000000000000000000, 0.03125000000000000000 ) ) ;
#496 = CARTESIAN_POINT ( 'NONE',  ( -0.5000000000000000000, 0.2499999999999999167, -0.03125000000000000000 ) ) ;
#497 = VERTEX_POINT ( 'NONE', #682 ) ;
#498 = FACE_BOUND ( 'NONE', #472, .T. ) ;
#499 = CARTESIAN_POINT ( 'NONE',  ( 0.3999999999999999667, 0.3499999999999999778, -0.03125000000000000000 ) ) ;
#500 = EDGE_CURVE ( 'NONE', #825, #781, #76, .T. ) ;
#501 = VERTEX_POINT ( 'NONE', #610 ) ;
#502 = CARTESIAN_POINT ( 'NONE',  ( 0.3499999999999999778, 0.2499999999999999167, -0.03125000000000000000 ) ) ;
#503 = DIRECTION ( 'NONE',  ( 0.000000000000000000, 0.000000000000000000, 1.000000000000000000 ) ) ;
#504 = CIRCLE ( 'NONE', #695, 0.05000000000000000971 ) ;
#505 = ORIENTED_EDGE ( 'NONE', *, *, #441, .F. ) ;
#506 = AXIS2_PLACEMENT_3D ( 'NONE', #33, #561, #174 ) ;
#507 = VECTOR ( 'NONE', #141, 39.37007874015748143 ) ;
#508 = CARTESIAN_POINT ( 'NONE',  ( 0.000000000000000000, 0.000000000000000000, 0.1462500000000000189 ) ) ;
#509 = DIRECTION ( 'NONE',  ( -0.000000000000000000, -0.000000000000000000, -1.000000000000000000 ) ) ;
#510 = VERTEX_POINT ( 'NONE', #415 ) ;
#511 = DIRECTION ( 'NONE',  ( -0.000000000000000000, -0.000000000000000000, -1.000000000000000000 ) ) ;
#512 = DIRECTION ( 'NONE',  ( 9.756599977372368637E-17, -1.000000000000000000, 0.000000000000000000 ) ) ;
#513 = VERTEX_POINT ( 'NONE', #242 ) ;
#514 = APPLICATION_PROTOCOL_DEFINITION ( 'draft international standard', 'automotive_design', 1998, #480 ) ;
#515 = EDGE_CURVE ( 'NONE', #541, #733, #727, .T. ) ;
#516 = CARTESIAN_POINT ( 'NONE',  ( -0.5000000000000001110, -0.1187499999999999667, 0.1462500000000000189 ) ) ;
#517 = CARTESIAN_POINT ( 'NONE',  ( 0.5000000000000001110, 0.1187499999999999944, 0.03125000000000000000 ) ) ;
#518 = VERTEX_POINT ( 'NONE', #435 ) ;
#519 = VECTOR ( 'NONE', #268, 39.37007874015748143 ) ;
#520 = PRESENTATION_LAYER_ASSIGNMENT (  '', '', ( #697 ) ) ;
#521 = AXIS2_PLACEMENT_3D ( 'NONE', #136, #342, #293 ) ;
#522 = DIRECTION ( 'NONE',  ( -1.000000000000000000, 0.000000000000000000, -0.000000000000000000 ) ) ;
#523 = CARTESIAN_POINT ( 'NONE',  ( -0.3499999999999999778, 0.2499999999999999167, -0.03125000000000000000 ) ) ;
#524 = AXIS2_PLACEMENT_3D ( 'NONE', #885, #528, #597 ) ;
#525 = VERTEX_POINT ( 'NONE', #361 ) ;
#526 = ORIENTED_EDGE ( 'NONE', *, *, #93, .T. ) ;
#527 = PLANE ( 'NONE',  #819 ) ;
#528 = DIRECTION ( 'NONE',  ( 0.000000000000000000, 0.000000000000000000, -1.000000000000000000 ) ) ;
#529 = EDGE_CURVE ( 'NONE', #244, #702, #17, .T. ) ;
#530 = EDGE_LOOP ( 'NONE', ( #550, #225, #669, #49 ) ) ;
#531 = ORIENTED_EDGE ( 'NONE', *, *, #404, .T. ) ;
#532 =( NAMED_UNIT ( * ) PLANE_ANGLE_UNIT ( ) SI_UNIT ( $, .RADIAN. ) );
#533 = LINE ( 'NONE', #154, #339 ) ;
#534 = VERTEX_POINT ( 'NONE', #488 ) ;
#535 = AXIS2_PLACEMENT_3D ( 'NONE', #508, #657, #522 ) ;
#536 = CARTESIAN_POINT ( 'NONE',  ( -0.5000000000000001110, -0.1187499999999999667, 0.03125000000000000000 ) ) ;
#537 = AXIS2_PLACEMENT_3D ( 'NONE', #816, #200, #473 ) ;
#538 = DIRECTION ( 'NONE',  ( 1.000000000000000000, 0.000000000000000000, 0.000000000000000000 ) ) ;
#539 = AXIS2_PLACEMENT_3D ( 'NONE', #717, #172, #176 ) ;
#540 = CARTESIAN_POINT ( 'NONE',  ( -0.5000000000000001110, -0.1187499999999999667, 0.1462500000000000189 ) ) ;
#541 = VERTEX_POINT ( 'NONE', #782 ) ;
#542 = ADVANCED_FACE ( 'NONE', ( #703 ), #238, .F. ) ;
#543 = FACE_OUTER_BOUND ( 'NONE', #427, .T. ) ;
#544 = ORIENTED_EDGE ( 'NONE', *, *, #529, .T. ) ;
#545 = ORIENTED_EDGE ( 'NONE', *, *, #470, .T. ) ;
#546 = CARTESIAN_POINT ( 'NONE',  ( -0.4499999999999999556, 0.2499999999999999167, -0.03125000000000000000 ) ) ;
#547 = PRODUCT_RELATED_PRODUCT_CATEGORY ( 'part', '', ( #689 ) ) ;
#548 = DIRECTION ( 'NONE',  ( -1.000000000000000000, -0.000000000000000000, -0.000000000000000000 ) ) ;
#549 = DIRECTION ( 'NONE',  ( 0.000000000000000000, 0.000000000000000000, 1.000000000000000000 ) ) ;
#550 = ORIENTED_EDGE ( 'NONE', *, *, #107, .F. ) ;
#551 = CARTESIAN_POINT ( 'NONE',  ( -0.5000000000000000000, 0.2499999999999999167, 0.03125000000000000000 ) ) ;
#552 = AXIS2_PLACEMENT_3D ( 'NONE', #327, #50, #594 ) ;
#553 = DIRECTION ( 'NONE',  ( 0.000000000000000000, -0.000000000000000000, 1.000000000000000000 ) ) ;
#554 = CYLINDRICAL_SURFACE ( 'NONE', #521, 0.1000000000000000194 ) ;
#555 = VECTOR ( 'NONE', #740, 39.37007874015748143 ) ;
#556 = ORIENTED_EDGE ( 'NONE', *, *, #37, .F. ) ;
#557 = FACE_BOUND ( 'NONE', #366, .T. ) ;
#558 = DIRECTION ( 'NONE',  ( -0.000000000000000000, -0.000000000000000000, 1.000000000000000000 ) ) ;
#559 = EDGE_CURVE ( 'NONE', #332, #525, #856, .T. ) ;
#560 = EDGE_LOOP ( 'NONE', ( #254, #586, #706, #858 ) ) ;
#561 = DIRECTION ( 'NONE',  ( 0.000000000000000000, 0.000000000000000000, -1.000000000000000000 ) ) ;
#562 = CARTESIAN_POINT ( 'NONE',  ( -0.3325000000000000733, -0.1187499999999999944, 0.1462500000000000189 ) ) ;
#563 = EDGE_LOOP ( 'NONE', ( #209, #544, #599, #447 ) ) ;
#564 = DIRECTION ( 'NONE',  ( 1.000000000000000000, 0.000000000000000000, 0.000000000000000000 ) ) ;
#565 = AXIS2_PLACEMENT_3D ( 'NONE', #403, #676, #829 ) ;
#566 = AXIS2_PLACEMENT_3D ( 'NONE', #206, #143, #889 ) ;
#567 = ORIENTED_EDGE ( 'NONE', *, *, #529, .F. ) ;
#568 = CIRCLE ( 'NONE', #701, 0.05000000000000000971 ) ;
#569 = EDGE_CURVE ( 'NONE', #184, #98, #590, .T. ) ;
#570 = DIRECTION ( 'NONE',  ( 1.000000000000000000, 0.000000000000000000, 0.000000000000000000 ) ) ;
#571 = DIRECTION ( 'NONE',  ( 9.756599977372368637E-17, -1.000000000000000000, 0.000000000000000000 ) ) ;
#572 = DIRECTION ( 'NONE',  ( -0.000000000000000000, -0.000000000000000000, 1.000000000000000000 ) ) ;
#573 = FACE_OUTER_BOUND ( 'NONE', #560, .T. ) ;
#574 = CARTESIAN_POINT ( 'NONE',  ( 0.3999999999999999667, 0.2499999999999999167, -0.03125000000000000000 ) ) ;
#575 = PLANE ( 'NONE',  #539 ) ;
#576 = VECTOR ( 'NONE', #548, 39.37007874015748143 ) ;
#577 = ORIENTED_EDGE ( 'NONE', *, *, #425, .F. ) ;
#578 = AXIS2_PLACEMENT_3D ( 'NONE', #75, #884, #667 ) ;
#579 = CIRCLE ( 'NONE', #30, 0.05000000000000000971 ) ;
#580 = DIRECTION ( 'NONE',  ( -0.000000000000000000, 0.000000000000000000, 1.000000000000000000 ) ) ;
#581 = CARTESIAN_POINT ( 'NONE',  ( 0.000000000000000000, 0.000000000000000000, 0.1462500000000000189 ) ) ;
#582 = ORIENTED_EDGE ( 'NONE', *, *, #821, .F. ) ;
#583 = ADVANCED_FACE ( 'NONE', ( #716 ), #630, .F. ) ;
#584 = LINE ( 'NONE', #36, #234 ) ;
#585 = DIRECTION ( 'NONE',  ( 1.000000000000000000, 0.000000000000000000, 0.000000000000000000 ) ) ;
#586 = ORIENTED_EDGE ( 'NONE', *, *, #22, .F. ) ;
#587 =( LENGTH_UNIT ( ) NAMED_UNIT ( * ) SI_UNIT ( $, .METRE. ) );
#588 = DIRECTION ( 'NONE',  ( 1.000000000000000000, 2.038692532585270183E-16, -0.000000000000000000 ) ) ;
#589 = VERTEX_POINT ( 'NONE', #102 ) ;
#590 = CIRCLE ( 'NONE', #129, 0.05000000000000000971 ) ;
#591 = ORIENTED_EDGE ( 'NONE', *, *, #224, .F. ) ;
#592 = DIRECTION ( 'NONE',  ( 1.000000000000000000, -1.019346266292635091E-16, 0.000000000000000000 ) ) ;
#593 = EDGE_CURVE ( 'NONE', #534, #589, #457, .T. ) ;
#594 = DIRECTION ( 'NONE',  ( -1.000000000000000000, 0.000000000000000000, 0.000000000000000000 ) ) ;
#595 = EDGE_LOOP ( 'NONE', ( #616, #876 ) ) ;
#596 = LINE ( 'NONE', #349, #877 ) ;
#597 = DIRECTION ( 'NONE',  ( -1.000000000000000000, 0.000000000000000000, 0.000000000000000000 ) ) ;
#598 = EDGE_LOOP ( 'NONE', ( #615, #237, #442, #795 ) ) ;
#599 = ORIENTED_EDGE ( 'NONE', *, *, #796, .T. ) ;
#600 = DIRECTION ( 'NONE',  ( 0.000000000000000000, -0.000000000000000000, -1.000000000000000000 ) ) ;
#601 = FACE_OUTER_BOUND ( 'NONE', #815, .T. ) ;
#602 = ORIENTED_EDGE ( 'NONE', *, *, #425, .T. ) ;
#603 = CIRCLE ( 'NONE', #326, 0.05000000000000000971 ) ;
#604 = CARTESIAN_POINT ( 'NONE',  ( -0.4999999999999999445, -0.2499999999999999167, 0.03125000000000000000 ) ) ;
#605 = CARTESIAN_POINT ( 'NONE',  ( -0.5000000000000001110, 0.1187499999999999944, 0.03125000000000000000 ) ) ;
#606 = AXIS2_PLACEMENT_3D ( 'NONE', #636, #38, #90 ) ;
#607 = LINE ( 'NONE', #693, #103 ) ;
#608 = ORIENTED_EDGE ( 'NONE', *, *, #696, .T. ) ;
#609 = LINE ( 'NONE', #270, #729 ) ;
#610 = CARTESIAN_POINT ( 'NONE',  ( 0.3325000000000000733, 0.1187499999999999806, 0.1462500000000000189 ) ) ;
#611 = CARTESIAN_POINT ( 'NONE',  ( 0.5000000000000000000, 0.3499999999999999778, 0.03125000000000000000 ) ) ;
#612 = ORIENTED_EDGE ( 'NONE', *, *, #886, .T. ) ;
#613 = FACE_BOUND ( 'NONE', #31, .T. ) ;
#614 = DIRECTION ( 'NONE',  ( 0.000000000000000000, 1.000000000000000000, 0.000000000000000000 ) ) ;
#615 = ORIENTED_EDGE ( 'NONE', *, *, #515, .F. ) ;
#616 = ORIENTED_EDGE ( 'NONE', *, *, #463, .T. ) ;
#617 = AXIS2_PLACEMENT_3D ( 'NONE', #458, #675, #686 ) ;
#618 = CARTESIAN_POINT ( 'NONE',  ( -0.4000000000000000777, -0.2499999999999999167, -0.03125000000000000000 ) ) ;
#619 = EDGE_CURVE ( 'NONE', #642, #871, #108, .T. ) ;
#620 = VECTOR ( 'NONE', #485, 39.37007874015748143 ) ;
#621 = DIRECTION ( 'NONE',  ( 0.000000000000000000, -0.000000000000000000, -1.000000000000000000 ) ) ;
#622 = AXIS2_PLACEMENT_3D ( 'NONE', #704, #94, #362 ) ;
#623 = ORIENTED_EDGE ( 'NONE', *, *, #487, .F. ) ;
#624 =( NAMED_UNIT ( * ) SI_UNIT ( $, .STERADIAN. ) SOLID_ANGLE_UNIT ( ) );
#625 = DIRECTION ( 'NONE',  ( 0.000000000000000000, 0.000000000000000000, 1.000000000000000000 ) ) ;
#626 = UNCERTAINTY_MEASURE_WITH_UNIT (LENGTH_MEASURE( 1.000000000000000082E-05 ), #735, 'distance_accuracy_value', 'NONE');
#627 = ADVANCED_FACE ( 'NONE', ( #557, #498, #851, #236, #698 ), #308, .T. ) ;
#628 = LINE ( 'NONE', #422, #221 ) ;
#629 = ORIENTED_EDGE ( 'NONE', *, *, #230, .F. ) ;
#630 = PLANE ( 'NONE',  #635 ) ;
#631 = CARTESIAN_POINT ( 'NONE',  ( 0.3499999999999999778, 0.2499999999999999167, -0.03125000000000000000 ) ) ;
#632 = ORIENTED_EDGE ( 'NONE', *, *, #312, .F. ) ;
#633 = EDGE_CURVE ( 'NONE', #14, #184, #88, .T. ) ;
#634 = CARTESIAN_POINT ( 'NONE',  ( -0.3325000000000000733, -0.1187499999999999944, 0.1462500000000000189 ) ) ;
#635 = AXIS2_PLACEMENT_3D ( 'NONE', #634, #853, #167 ) ;
#636 = CARTESIAN_POINT ( 'NONE',  ( 0.3999999999999999667, 0.2499999999999999167, 0.03125000000000000000 ) ) ;
#637 = VECTOR ( 'NONE', #281, 39.37007874015748143 ) ;
#638 = ORIENTED_EDGE ( 'NONE', *, *, #677, .T. ) ;
#639 = ADVANCED_FACE ( 'NONE', ( #305 ), #292, .F. ) ;
#640 = DIRECTION ( 'NONE',  ( -1.000000000000000000, 0.000000000000000000, 0.000000000000000000 ) ) ;
#641 = DIRECTION ( 'NONE',  ( -1.000000000000000000, 0.000000000000000000, 0.000000000000000000 ) ) ;
#642 = VERTEX_POINT ( 'NONE', #771 ) ;
#643 = DIRECTION ( 'NONE',  ( 1.000000000000000000, -2.038692532585270183E-16, 0.000000000000000000 ) ) ;
#644 = LINE ( 'NONE', #97, #461 ) ;
#645 = VERTEX_POINT ( 'NONE', #159 ) ;
#646 = CARTESIAN_POINT ( 'NONE',  ( 0.5000000000000001110, 0.1187499999999999944, 0.1462500000000000189 ) ) ;
#647 = LINE ( 'NONE', #43, #175 ) ;
#648 = EDGE_CURVE ( 'NONE', #642, #820, #420, .T. ) ;
#649 = CIRCLE ( 'NONE', #289, 0.05000000000000000971 ) ;
#650 = ORIENTED_EDGE ( 'NONE', *, *, #463, .F. ) ;
#651 =( GEOMETRIC_REPRESENTATION_CONTEXT ( 3 ) GLOBAL_UNCERTAINTY_ASSIGNED_CONTEXT ( ( #626 ) ) GLOBAL_UNIT_ASSIGNED_CONTEXT ( ( #735, #532, #334 ) ) REPRESENTATION_CONTEXT ( 'NONE', 'WORKASPACE' ) );
#652 = AXIS2_PLACEMENT_3D ( 'NONE', #683, #405, #146 ) ;
#653 = DIRECTION ( 'NONE',  ( -0.000000000000000000, -0.000000000000000000, 1.000000000000000000 ) ) ;
#654 = DIRECTION ( 'NONE',  ( 1.000000000000000000, 0.000000000000000000, 0.000000000000000000 ) ) ;
#655 = ADVANCED_FACE ( 'NONE', ( #20 ), #295, .T. ) ;
#656 = VERTEX_POINT ( 'NONE', #845 ) ;
#657 = DIRECTION ( 'NONE',  ( 0.000000000000000000, 0.000000000000000000, -1.000000000000000000 ) ) ;
#658 = LINE ( 'NONE', #726, #261 ) ;
#659 = ORIENTED_EDGE ( 'NONE', *, *, #60, .F. ) ;
#660 = EDGE_CURVE ( 'NONE', #91, #479, #164, .T. ) ;
#661 = FACE_OUTER_BOUND ( 'NONE', #685, .T. ) ;
#662 = CARTESIAN_POINT ( 'NONE',  ( 0.3999999999999999667, 0.3499999999999999778, 0.03125000000000000000 ) ) ;
#663 = ORIENTED_EDGE ( 'NONE', *, *, #477, .T. ) ;
#664 = AXIS2_PLACEMENT_3D ( 'NONE', #7, #600, #2 ) ;
#665 = EDGE_LOOP ( 'NONE', ( #883, #83 ) ) ;
#666 = EDGE_CURVE ( 'NONE', #781, #510, #320, .T. ) ;
#667 = DIRECTION ( 'NONE',  ( 1.000000000000000000, 0.000000000000000000, 0.000000000000000000 ) ) ;
#668 = LINE ( 'NONE', #803, #555 ) ;
#669 = ORIENTED_EDGE ( 'NONE', *, *, #398, .T. ) ;
#670 = ORIENTED_EDGE ( 'NONE', *, *, #666, .F. ) ;
#671 = CARTESIAN_POINT ( 'NONE',  ( 0.5000000000000001110, -0.1187499999999999944, 0.03125000000000000000 ) ) ;
#672 = PRODUCT_DEFINITION_SHAPE ( 'NONE', 'NONE',  #187 ) ;
#673 = CARTESIAN_POINT ( 'NONE',  ( -0.4999999999999999445, -0.3499999999999999778, 0.03125000000000000000 ) ) ;
#674 = LINE ( 'NONE', #688, #760 ) ;
#675 = DIRECTION ( 'NONE',  ( 0.000000000000000000, 0.000000000000000000, 1.000000000000000000 ) ) ;
#676 = DIRECTION ( 'NONE',  ( -0.000000000000000000, 0.000000000000000000, 1.000000000000000000 ) ) ;
#677 = EDGE_CURVE ( 'NONE', #344, #35, #603, .T. ) ;
#678 = CARTESIAN_POINT ( 'NONE',  ( 0.3999999999999999667, 0.2499999999999999167, -0.03125000000000000000 ) ) ;
#679 = ORIENTED_EDGE ( 'NONE', *, *, #660, .T. ) ;
#680 = VECTOR ( 'NONE', #345, 39.37007874015748143 ) ;
#681 = PLANE ( 'NONE',  #578 ) ;
#682 = CARTESIAN_POINT ( 'NONE',  ( 0.4499999999999999556, 0.2499999999999999167, -0.03125000000000000000 ) ) ;
#683 = CARTESIAN_POINT ( 'NONE',  ( 0.4000000000000000777, -0.2499999999999999167, 0.03125000000000000000 ) ) ;
#684 = EDGE_CURVE ( 'NONE', #513, #91, #730, .T. ) ;
#685 = EDGE_LOOP ( 'NONE', ( #810, #454, #690, #360 ) ) ;
#686 = DIRECTION ( 'NONE',  ( 1.000000000000000000, 0.000000000000000000, 0.000000000000000000 ) ) ;
#687 = DIRECTION ( 'NONE',  ( 1.000000000000000000, 0.000000000000000000, 0.000000000000000000 ) ) ;
#688 = CARTESIAN_POINT ( 'NONE',  ( 0.5000000000000001110, 0.1187499999999999944, 0.1462500000000000189 ) ) ;
#689 = PRODUCT ( 'Adafruit BME688', 'Adafruit BME688', '', ( #439 ) ) ;
#690 = ORIENTED_EDGE ( 'NONE', *, *, #660, .F. ) ;
#691 = ADVANCED_FACE ( 'NONE', ( #801 ), #527, .F. ) ;
#692 = LINE ( 'NONE', #746, #302 ) ;
#693 = CARTESIAN_POINT ( 'NONE',  ( -0.3499999999999999778, 0.2499999999999999167, -0.03125000000000000000 ) ) ;
#694 = ORIENTED_EDGE ( 'NONE', *, *, #127, .T. ) ;
#695 = AXIS2_PLACEMENT_3D ( 'NONE', #574, #247, #311 ) ;
#696 = EDGE_CURVE ( 'NONE', #25, #417, #584, .T. ) ;
#697 = STYLED_ITEM ( 'NONE', ( #120 ), #776 ) ;
#698 = FACE_OUTER_BOUND ( 'NONE', #57, .T. ) ;
#699 = AXIS2_PLACEMENT_3D ( 'NONE', #678, #351, #824 ) ;
#700 = DIRECTION ( 'NONE',  ( -0.000000000000000000, -0.000000000000000000, -1.000000000000000000 ) ) ;
#701 = AXIS2_PLACEMENT_3D ( 'NONE', #394, #881, #453 ) ;
#702 = VERTEX_POINT ( 'NONE', #46 ) ;
#703 = FACE_OUTER_BOUND ( 'NONE', #847, .T. ) ;
#704 = CARTESIAN_POINT ( 'NONE',  ( 0.4000000000000000777, -0.2499999999999999167, -0.03125000000000000000 ) ) ;
#705 = ADVANCED_FACE ( 'NONE', ( #661 ), #325, .F. ) ;
#706 = ORIENTED_EDGE ( 'NONE', *, *, #298, .F. ) ;
#707 = DIRECTION ( 'NONE',  ( 0.000000000000000000, -0.000000000000000000, -1.000000000000000000 ) ) ;
#708 = EDGE_CURVE ( 'NONE', #497, #244, #504, .T. ) ;
#709 = ORIENTED_EDGE ( 'NONE', *, *, #684, .F. ) ;
#710 = CARTESIAN_POINT ( 'NONE',  ( 0.5000000000000001110, -0.1187499999999999667, 0.1462500000000000189 ) ) ;
#711 = VECTOR ( 'NONE', #643, 39.37007874015748143 ) ;
#712 = FACE_OUTER_BOUND ( 'NONE', #718, .T. ) ;
#713 = AXIS2_PLACEMENT_3D ( 'NONE', #768, #155, #418 ) ;
#714 = AXIS2_PLACEMENT_3D ( 'NONE', #581, #256, #813 ) ;
#715 = ORIENTED_EDGE ( 'NONE', *, *, #11, .F. ) ;
#716 = FACE_OUTER_BOUND ( 'NONE', #882, .T. ) ;
#717 = CARTESIAN_POINT ( 'NONE',  ( 0.3325000000000000733, -0.1187499999999999944, 0.1462500000000000189 ) ) ;
#718 = EDGE_LOOP ( 'NONE', ( #166, #153, #492, #397 ) ) ;
#719 =( LENGTH_UNIT ( ) NAMED_UNIT ( * ) SI_UNIT ( $, .METRE. ) );
#720 = ADVANCED_FACE ( 'NONE', ( #185 ), #383, .F. ) ;
#721 = CARTESIAN_POINT ( 'NONE',  ( 0.4000000000000000777, -0.2499999999999999167, 0.03125000000000000000 ) ) ;
#722 = FACE_OUTER_BOUND ( 'NONE', #748, .T. ) ;
#723 = ORIENTED_EDGE ( 'NONE', *, *, #218, .F. ) ;
#724 = SURFACE_STYLE_USAGE ( .BOTH. , #182 ) ;
#725 = EDGE_CURVE ( 'NONE', #871, #501, #793, .T. ) ;
#726 = CARTESIAN_POINT ( 'NONE',  ( -0.3325000000000000733, 0.1187499999999999806, 0.1462500000000000189 ) ) ;
#727 = CIRCLE ( 'NONE', #147, 0.1000000000000000194 ) ;
#728 = EDGE_LOOP ( 'NONE', ( #638, #836 ) ) ;
#729 = VECTOR ( 'NONE', #138, 39.37007874015748143 ) ;
#730 = LINE ( 'NONE', #388, #489 ) ;
#731 = FACE_OUTER_BOUND ( 'NONE', #346, .T. ) ;
#732 = ADVANCED_FACE ( 'NONE', ( #255 ), #865, .F. ) ;
#733 = VERTEX_POINT ( 'NONE', #437 ) ;
#734 = ORIENTED_EDGE ( 'NONE', *, *, #181, .T. ) ;
#735 =( CONVERSION_BASED_UNIT ( 'INCH', #192 ) LENGTH_UNIT ( ) NAMED_UNIT ( #252 ) );
#736 = DIRECTION ( 'NONE',  ( 1.000000000000000000, 0.000000000000000000, 0.000000000000000000 ) ) ;
#737 = ORIENTED_EDGE ( 'NONE', *, *, #619, .F. ) ;
#738 = ORIENTED_EDGE ( 'NONE', *, *, #404, .F. ) ;
#739 = DIRECTION ( 'NONE',  ( 2.038692532585270183E-16, 1.000000000000000000, -0.000000000000000000 ) ) ;
#740 = DIRECTION ( 'NONE',  ( -0.000000000000000000, -1.000000000000000000, -0.000000000000000000 ) ) ;
#741 = ORIENTED_EDGE ( 'NONE', *, *, #250, .T. ) ;
#742 = AXIS2_PLACEMENT_3D ( 'NONE', #81, #817, #350 ) ;
#743 = VECTOR ( 'NONE', #464, 39.37007874015748143 ) ;
#744 = VECTOR ( 'NONE', #700, 39.37007874015748143 ) ;
#745 = FACE_BOUND ( 'NONE', #728, .T. ) ;
#746 = CARTESIAN_POINT ( 'NONE',  ( 0.3999999999999999667, 0.3499999999999999778, 0.03125000000000000000 ) ) ;
#747 = ORIENTED_EDGE ( 'NONE', *, *, #375, .T. ) ;
#748 = EDGE_LOOP ( 'NONE', ( #180, #170, #386, #132 ) ) ;
#749 = LINE ( 'NONE', #64, #850 ) ;
#750 = EDGE_CURVE ( 'NONE', #518, #825, #115, .T. ) ;
#751 = DIRECTION ( 'NONE',  ( 1.000000000000000000, 2.038692532585270183E-16, -0.000000000000000000 ) ) ;
#752 = CARTESIAN_POINT ( 'NONE',  ( 0.3325000000000000733, 0.1187499999999999806, 0.03125000000000000000 ) ) ;
#753 = ORIENTED_EDGE ( 'NONE', *, *, #834, .F. ) ;
#754 = FACE_OUTER_BOUND ( 'NONE', #757, .T. ) ;
#755 = LINE ( 'NONE', #144, #131 ) ;
#756 = LINE ( 'NONE', #273, #393 ) ;
#757 = EDGE_LOOP ( 'NONE', ( #177, #19, #670, #694, #659, #390, #800, #220 ) ) ;
#758 = VECTOR ( 'NONE', #231, 39.37007874015748143 ) ;
#759 = DIRECTION ( 'NONE',  ( -0.000000000000000000, -0.000000000000000000, 1.000000000000000000 ) ) ;
#760 = VECTOR ( 'NONE', #840, 39.37007874015748143 ) ;
#761 = CYLINDRICAL_SURFACE ( 'NONE', #742, 0.05000000000000000971 ) ;
#762 = AXIS2_PLACEMENT_3D ( 'NONE', #264, #197, #121 ) ;
#763 = CARTESIAN_POINT ( 'NONE',  ( 0.5000000000000001110, 0.1187499999999999944, 0.03125000000000000000 ) ) ;
#764 = EDGE_CURVE ( 'NONE', #91, #156, #448, .T. ) ;
#765 = VERTEX_POINT ( 'NONE', #444 ) ;
#766 = CARTESIAN_POINT ( 'NONE',  ( 0.5000000000000001110, -0.2499999999999999167, -0.03125000000000000000 ) ) ;
#767 = CARTESIAN_POINT ( 'NONE',  ( 0.4499999999999999556, 0.2499999999999999167, 0.03125000000000000000 ) ) ;
#768 = CARTESIAN_POINT ( 'NONE',  ( 0.5000000000000001110, -0.1187499999999999667, 0.1462500000000000189 ) ) ;
#769 = ORIENTED_EDGE ( 'NONE', *, *, #79, .T. ) ;
#770 = LENGTH_MEASURE_WITH_UNIT ( LENGTH_MEASURE( 0.02539999999999999897 ), #719 );
#771 = CARTESIAN_POINT ( 'NONE',  ( 0.5000000000000001110, -0.1187499999999999667, 0.1462500000000000189 ) ) ;
#772 = DIRECTION ( 'NONE',  ( -0.000000000000000000, 0.000000000000000000, -1.000000000000000000 ) ) ;
#773 = ORIENTED_EDGE ( 'NONE', *, *, #157, .F. ) ;
#774 = VECTOR ( 'NONE', #128, 39.37007874015748143 ) ;
#775 = DIRECTION ( 'NONE',  ( 1.000000000000000000, 0.000000000000000000, 0.000000000000000000 ) ) ;
#776 = MANIFOLD_SOLID_BREP ( 'Fillet1', #28 ) ;
#777 = CYLINDRICAL_SURFACE ( 'NONE', #133, 0.05000000000000000971 ) ;
#778 = EDGE_LOOP ( 'NONE', ( #229, #9, #747, #455 ) ) ;
#779 = DIRECTION ( 'NONE',  ( 1.000000000000000000, 0.000000000000000000, 0.000000000000000000 ) ) ;
#780 = CARTESIAN_POINT ( 'NONE',  ( -0.3999999999999999112, -0.3499999999999999778, 0.03125000000000000000 ) ) ;
#781 = VERTEX_POINT ( 'NONE', #766 ) ;
#782 = CARTESIAN_POINT ( 'NONE',  ( -0.4999999999999999445, -0.2499999999999999167, 0.03125000000000000000 ) ) ;
#783 = CARTESIAN_POINT ( 'NONE',  ( -0.5000000000000001110, -0.1187499999999999667, 0.03125000000000000000 ) ) ;
#784 = EDGE_CURVE ( 'NONE', #48, #134, #872, .T. ) ;
#785 = ORIENTED_EDGE ( 'NONE', *, *, #298, .T. ) ;
#786 = CARTESIAN_POINT ( 'NONE',  ( 0.5000000000000001110, -0.1187499999999999667, 0.1462500000000000189 ) ) ;
#787 = AXIS2_PLACEMENT_3D ( 'NONE', #673, #614, #553 ) ;
#788 = DIRECTION ( 'NONE',  ( 0.000000000000000000, -0.000000000000000000, -1.000000000000000000 ) ) ;
#789 = VECTOR ( 'NONE', #283, 39.37007874015748143 ) ;
#790 = ORIENTED_EDGE ( 'NONE', *, *, #60, .T. ) ;
#791 =( NAMED_UNIT ( * ) PLANE_ANGLE_UNIT ( ) SI_UNIT ( $, .RADIAN. ) );
#792 = EDGE_CURVE ( 'NONE', #249, #14, #410, .T. ) ;
#793 = LINE ( 'NONE', #646, #162 ) ;
#794 = DIRECTION ( 'NONE',  ( -0.000000000000000000, -0.000000000000000000, 1.000000000000000000 ) ) ;
#795 = ORIENTED_EDGE ( 'NONE', *, *, #140, .F. ) ;
#796 = EDGE_CURVE ( 'NONE', #702, #401, #356, .T. ) ;
#797 = SURFACE_STYLE_FILL_AREA ( #812 ) ;
#798 = CARTESIAN_POINT ( 'NONE',  ( -0.4000000000000000777, -0.2499999999999999167, -0.03125000000000000000 ) ) ;
#799 = ORIENTED_EDGE ( 'NONE', *, *, #494, .F. ) ;
#800 = ORIENTED_EDGE ( 'NONE', *, *, #194, .F. ) ;
#801 = FACE_OUTER_BOUND ( 'NONE', #368, .T. ) ;
#802 = EDGE_CURVE ( 'NONE', #35, #106, #407, .T. ) ;
#803 = CARTESIAN_POINT ( 'NONE',  ( 0.3325000000000000733, -0.1187499999999999944, 0.1462500000000000189 ) ) ;
#804 = ORIENTED_EDGE ( 'NONE', *, *, #470, .F. ) ;
#805 = VECTOR ( 'NONE', #414, 39.37007874015748143 ) ;
#806 = ORIENTED_EDGE ( 'NONE', *, *, #181, .F. ) ;
#807 = DIRECTION ( 'NONE',  ( -9.756599977372368637E-17, 1.000000000000000000, 0.000000000000000000 ) ) ;
#808 = DIRECTION ( 'NONE',  ( 0.000000000000000000, 0.000000000000000000, 1.000000000000000000 ) ) ;
#809 = ADVANCED_FACE ( 'NONE', ( #338 ), #832, .F. ) ;
#810 = ORIENTED_EDGE ( 'NONE', *, *, #828, .T. ) ;
#811 = EDGE_LOOP ( 'NONE', ( #567, #190, #423, #110 ) ) ;
#812 = FILL_AREA_STYLE ('',( #440 ) ) ;
#813 = DIRECTION ( 'NONE',  ( 1.000000000000000000, 0.000000000000000000, -0.000000000000000000 ) ) ;
#814 = ORIENTED_EDGE ( 'NONE', *, *, #145, .T. ) ;
#815 = EDGE_LOOP ( 'NONE', ( #328, #95, #577, #266 ) ) ;
#816 = CARTESIAN_POINT ( 'NONE',  ( 0.5000000000000000000, 0.3499999999999999778, 0.03125000000000000000 ) ) ;
#817 = DIRECTION ( 'NONE',  ( -0.000000000000000000, -0.000000000000000000, 1.000000000000000000 ) ) ;
#818 = EDGE_LOOP ( 'NONE', ( #433, #119, #63, #526 ) ) ;
#819 = AXIS2_PLACEMENT_3D ( 'NONE', #40, #111, #592 ) ;
#820 = VERTEX_POINT ( 'NONE', #671 ) ;
#821 = EDGE_CURVE ( 'NONE', #733, #518, #749, .T. ) ;
#822 = CARTESIAN_POINT ( 'NONE',  ( -0.3325000000000000733, -0.1187499999999999944, 0.03125000000000000000 ) ) ;
#823 = CARTESIAN_POINT ( 'NONE',  ( -0.3325000000000000733, -0.1187499999999999944, 0.1462500000000000189 ) ) ;
#824 = DIRECTION ( 'NONE',  ( -1.000000000000000000, 0.000000000000000000, 0.000000000000000000 ) ) ;
#825 = VERTEX_POINT ( 'NONE', #80 ) ;
#826 = EDGE_CURVE ( 'NONE', #513, #396, #596, .T. ) ;
#827 = CARTESIAN_POINT ( 'NONE',  ( 0.3999999999999999667, 0.2499999999999999167, 0.03125000000000000000 ) ) ;
#828 = EDGE_CURVE ( 'NONE', #156, #258, #1, .T. ) ;
#829 = DIRECTION ( 'NONE',  ( 1.000000000000000000, 0.000000000000000000, 0.000000000000000000 ) ) ;
#830 = CARTESIAN_POINT ( 'NONE',  ( -0.4999999999999999445, -0.3499999999999999778, -0.03125000000000000000 ) ) ;
#831 = ORIENTED_EDGE ( 'NONE', *, *, #633, .T. ) ;
#832 = CYLINDRICAL_SURFACE ( 'NONE', #26, 0.05000000000000000971 ) ;
#833 = LINE ( 'NONE', #460, #576 ) ;
#834 = EDGE_CURVE ( 'NONE', #288, #321, #609, .T. ) ;
#835 = DIRECTION ( 'NONE',  ( -1.951319995474473727E-16, 1.000000000000000000, -0.000000000000000000 ) ) ;
#836 = ORIENTED_EDGE ( 'NONE', *, *, #122, .T. ) ;
#837 = AXIS2_PLACEMENT_3D ( 'NONE', #869, #739, #859 ) ;
#838 = LINE ( 'NONE', #340, #519 ) ;
#839 = EDGE_CURVE ( 'NONE', #258, #443, #6, .T. ) ;
#840 = DIRECTION ( 'NONE',  ( -0.000000000000000000, -0.000000000000000000, -1.000000000000000000 ) ) ;
#841 = ORIENTED_EDGE ( 'NONE', *, *, #194, .T. ) ;
#842 = CARTESIAN_POINT ( 'NONE',  ( -0.3999999999999999112, -0.2499999999999999167, 0.03125000000000000000 ) ) ;
#843 = CARTESIAN_POINT ( 'NONE',  ( 0.4500000000000001221, -0.2499999999999999167, 0.03125000000000000000 ) ) ;
#844 = ORIENTED_EDGE ( 'NONE', *, *, #169, .F. ) ;
#845 = CARTESIAN_POINT ( 'NONE',  ( 0.3325000000000000733, -0.1187499999999999944, 0.1462500000000000189 ) ) ;
#846 = DIRECTION ( 'NONE',  ( 1.000000000000000000, 0.000000000000000000, 0.000000000000000000 ) ) ;
#847 = EDGE_LOOP ( 'NONE', ( #769, #191, #142, #52 ) ) ;
#848 = ADVANCED_FACE ( 'NONE', ( #481, #613, #59, #745, #754 ), #681, .F. ) ;
#849 = CIRCLE ( 'NONE', #664, 0.1000000000000000194 ) ;
#850 = VECTOR ( 'NONE', #392, 39.37007874015748143 ) ;
#851 = FACE_BOUND ( 'NONE', #290, .T. ) ;
#852 = ORIENTED_EDGE ( 'NONE', *, *, #666, .T. ) ;
#853 = DIRECTION ( 'NONE',  ( -1.000000000000000000, 0.000000000000000000, 0.000000000000000000 ) ) ;
#854 = CARTESIAN_POINT ( 'NONE',  ( -0.5000000000000001110, 0.1187499999999999944, 0.03125000000000000000 ) ) ;
#855 = ORIENTED_EDGE ( 'NONE', *, *, #821, .T. ) ;
#856 = LINE ( 'NONE', #171, #201 ) ;
#857 = ADVANCED_FACE ( 'NONE', ( #267 ), #215, .F. ) ;
#858 = ORIENTED_EDGE ( 'NONE', *, *, #336, .T. ) ;
#859 = DIRECTION ( 'NONE',  ( -1.000000000000000000, 2.038692532585270183E-16, 0.000000000000000000 ) ) ;
#860 = LINE ( 'NONE', #109, #304 ) ;
#861 = CIRCLE ( 'NONE', #652, 0.05000000000000000971 ) ;
#862 = VECTOR ( 'NONE', #248, 39.37007874015748143 ) ;
#863 = ORIENTED_EDGE ( 'NONE', *, *, #412, .F. ) ;
#864 = DIRECTION ( 'NONE',  ( 1.000000000000000000, 0.000000000000000000, 0.000000000000000000 ) ) ;
#865 = PLANE ( 'NONE',  #378 ) ;
#866 = CARTESIAN_POINT ( 'NONE',  ( 0.3325000000000000733, 0.1187499999999999806, 0.1462500000000000189 ) ) ;
#867 = ORIENTED_EDGE ( 'NONE', *, *, #684, .T. ) ;
#868 = EDGE_CURVE ( 'NONE', #23, #106, #491, .T. ) ;
#869 = CARTESIAN_POINT ( 'NONE',  ( -0.5000000000000001110, -0.1187499999999999667, 0.1462500000000000189 ) ) ;
#870 = FACE_OUTER_BOUND ( 'NONE', #137, .T. ) ;
#871 = VERTEX_POINT ( 'NONE', #67 ) ;
#872 = LINE ( 'NONE', #551, #743 ) ;
#873 = APPLICATION_CONTEXT ( 'automotive_design' ) ;
#874 = CARTESIAN_POINT ( 'NONE',  ( -0.3999999999999999667, 0.2499999999999999167, 0.03125000000000000000 ) ) ;
#875 = VECTOR ( 'NONE', #299, 39.37007874015748143 ) ;
#876 = ORIENTED_EDGE ( 'NONE', *, *, #276, .T. ) ;
#877 = VECTOR ( 'NONE', #150, 39.37007874015748143 ) ;
#878 = VECTOR ( 'NONE', #835, 39.37007874015748143 ) ;
#879 = AXIS2_PLACEMENT_3D ( 'NONE', #798, #794, #585 ) ;
#880 = CARTESIAN_POINT ( 'NONE',  ( -0.5000000000000000000, 0.3499999999999999778, 0.03125000000000000000 ) ) ;
#881 = DIRECTION ( 'NONE',  ( 0.000000000000000000, 0.000000000000000000, 1.000000000000000000 ) ) ;
#882 = EDGE_LOOP ( 'NONE', ( #62, #387, #4, #124 ) ) ;
#883 = ORIENTED_EDGE ( 'NONE', *, *, #868, .F. ) ;
#884 = DIRECTION ( 'NONE',  ( -0.000000000000000000, 0.000000000000000000, 1.000000000000000000 ) ) ;
#885 = CARTESIAN_POINT ( 'NONE',  ( 0.4000000000000000777, -0.2499999999999999167, 0.03125000000000000000 ) ) ;
#886 = EDGE_CURVE ( 'NONE', #589, #541, #10, .T. ) ;
#887 = ORIENTED_EDGE ( 'NONE', *, *, #107, .T. ) ;
#888 = EDGE_LOOP ( 'NONE', ( #773, #650, #608, #545 ) ) ;
#889 = DIRECTION ( 'NONE',  ( -1.000000000000000000, 0.000000000000000000, 0.000000000000000000 ) ) ;
#890 = CARTESIAN_POINT ( 'NONE',  ( 0.4499999999999999556, 0.2499999999999999167, -0.03125000000000000000 ) ) ;
#891 = LINE ( 'NONE', #830, #789 ) ;
#892 = AXIS2_PLACEMENT_3D ( 'NONE', #24, #707, #564 ) ;
#893 = ORIENTED_EDGE ( 'NONE', *, *, #477, .F. ) ;
ENDSEC;
END-ISO-10303-21;
